<svg aria-hidden="true" style="position: absolute; width: 0; height: 0; overflow: hidden;" version="1.1" xmlns="http://www.w3.org/2000/svg" xmlns:xlink="http://www.w3.org/1999/xlink">
<defs>
<symbol id="icon-shared" viewBox="0 0 32 32">
<title>shared</title>
<path d="M17.077 8.226c0.37-0.154 0.772-0.226 1.19-0.226s0.819 0.073 1.189 0.226l0.002 0.001c0.372 0.156 0.701 0.39 0.972 0.701 0.269 0.308 0.471 0.681 0.605 1.102s0.2 0.892 0.2 1.405v1.846c0 0.198-0.088 0.386-0.241 0.513l-0.002 0.002-0.007 0.006-0.028 0.023c-0.024 0.021-0.059 0.050-0.101 0.086-0.085 0.073-0.196 0.169-0.306 0.269-0.091 0.082-0.173 0.16-0.236 0.225-0.001 0.065-0.003 0.139-0.005 0.212-0.001 0.023-0.001 0.046-0.002 0.068-0.002 0.101-0.004 0.193-0.004 0.265 0 0.036 0.001 0.062 0.001 0.078 0.004 0.025 0.006 0.051 0.007 0.076 0.002 0.002 0.005 0.005 0.008 0.009 0.046 0.044 0.143 0.107 0.339 0.196 0.075 0.034 0.168 0.072 0.273 0.115 0.349 0.144 0.83 0.342 1.225 0.62 0.23 0.156 0.463 0.332 0.68 0.538s0.421 0.441 0.596 0.714c0.176 0.275 0.317 0.58 0.415 0.921l0.001 0.002c0.097 0.343 0.149 0.716 0.149 1.123v1.323c0 0.368-0.298 0.667-0.667 0.667s-0.667-0.299-0.667-0.667v-1.323c0-0.293-0.037-0.543-0.098-0.758-0.062-0.216-0.149-0.402-0.256-0.568l-0.001-0.002c-0.107-0.167-0.237-0.32-0.39-0.465-0.151-0.143-0.323-0.276-0.515-0.405l-0.011-0.007c-0.263-0.186-0.535-0.298-0.849-0.428-0.137-0.056-0.281-0.116-0.437-0.187-0.392-0.178-1.084-0.529-1.127-1.335-0.005-0.043-0.007-0.079-0.008-0.099-0.002-0.044-0.003-0.091-0.003-0.137-0-0.091 0.002-0.199 0.005-0.299 0.001-0.025 0.001-0.050 0.002-0.074 0.002-0.075 0.004-0.145 0.005-0.205 0.001-0.056 0.001-0.088 0.001-0.103 0-0.010 0-0.012 0-0.007l0.663-0.067-0.663 0.071c-0.020-0.188 0.042-0.332 0.064-0.38 0.030-0.065 0.064-0.118 0.089-0.153 0.050-0.071 0.109-0.139 0.16-0.193 0.105-0.113 0.237-0.238 0.358-0.348 0.087-0.079 0.174-0.156 0.249-0.221v-1.538c0-0.401-0.052-0.733-0.137-1.002-0.085-0.268-0.203-0.474-0.339-0.629-0.134-0.154-0.295-0.269-0.482-0.348-0.19-0.079-0.415-0.124-0.677-0.124-0.263 0-0.489 0.046-0.679 0.124-0.34 0.141-0.73-0.020-0.871-0.36s0.020-0.73 0.36-0.871zM20.306 15.042c0 0-0-0.001-0-0.004l0 0.004z"></path>
<path d="M16.443 17.048l1.165-1.071c0.137-0.126 0.216-0.304 0.216-0.491v-2.722c0-0.935-0.487-1.872-0.99-2.436-0.54-0.604-1.304-0.996-2.166-0.996s-1.627 0.391-2.166 0.996c-0.504 0.564-0.989 1.501-0.989 2.436v2.722c0 0.187 0.078 0.365 0.216 0.491l1.152 1.059c-0.017 0.089-0.035 0.187-0.054 0.286-0.032 0.164-0.064 0.324-0.091 0.444-0.001 0.004-0.002 0.008-0.003 0.012-0.047 0.032-0.113 0.069-0.203 0.11-0.169 0.077-0.374 0.145-0.624 0.225-0.035 0.011-0.072 0.023-0.109 0.035-0.443 0.14-1.032 0.327-1.48 0.658-0.421 0.311-0.841 0.704-1.152 1.24-0.314 0.542-0.497 1.193-0.497 1.99v1.298c0 0.368 0.298 0.667 0.667 0.667h10.667c0.368 0 0.667-0.299 0.667-0.667v-1.298c0-0.795-0.184-1.447-0.5-1.989-0.312-0.536-0.733-0.931-1.154-1.243-0.45-0.334-1.042-0.522-1.486-0.663-0.036-0.011-0.070-0.022-0.104-0.033-0.25-0.080-0.454-0.149-0.623-0.225-0.106-0.048-0.178-0.090-0.225-0.125-0.003-0.012-0.007-0.025-0.010-0.040-0.027-0.111-0.055-0.258-0.082-0.413-0.015-0.089-0.029-0.177-0.041-0.258zM16.601 17.841c0 0-0.002-0.004-0.005-0.013 0.004 0.008 0.005 0.013 0.005 0.013z"></path>
</symbol>
<symbol id="icon-vault" viewBox="0 0 32 32">
<title>vault</title>
<path fill="none" stroke="#221f1f" style="stroke: var(--color1, #221f1f)" stroke-linejoin="round" stroke-linecap="round" stroke-miterlimit="4" stroke-width="1.3333" d="M24.531 8.183c-0.97-0.398-2.24-0.921-3.503-1.442-1.265-0.52-3.462-1.427-3.462-1.427l-1.566-0.648-1.565 0.648c0 0-2.197 0.907-3.462 1.427-1.263 0.521-2.533 1.044-3.503 1.442-0.968 0.398-1.635 0.669-1.692 0.686 0 1.142 0.027 2.168 0.088 3.102 0.061 0.936 0.154 1.779 0.284 2.561 0.132 0.78 0.298 1.499 0.508 2.182 0.209 0.683 0.461 1.329 0.76 1.966 0.667 1.43 1.538 2.685 2.467 3.764s1.916 1.981 2.822 2.706c0.904 0.723 1.726 1.269 2.323 1.633s0.968 0.549 0.97 0.55c0.003-0.001 0.375-0.185 0.971-0.55s1.417-0.91 2.323-1.633c0.905-0.725 1.893-1.627 2.822-2.706s1.799-2.334 2.467-3.764c0.298-0.637 0.551-1.284 0.76-1.966s0.377-1.401 0.508-2.182c0.13-0.782 0.223-1.626 0.283-2.561 0.061-0.934 0.089-1.96 0.089-3.102-0.057-0.017-0.723-0.288-1.692-0.686z"></path>
<path d="M15.333 14.961c-0.651-0.269-1.111-0.92-1.111-1.681 0-1.001 0.796-1.813 1.778-1.813s1.778 0.812 1.778 1.813c0 0.761-0.46 1.413-1.111 1.681v3.759c0 0.25-0.333 0.635-0.667 0.635s-0.667-0.385-0.667-0.635v-3.759z"></path>
</symbol>
<symbol id="icon-account-settings" viewBox="0 0 32 32">
<title>account-settings</title>
<path stroke-linejoin="round" stroke-linecap="round" stroke-miterlimit="4" stroke-width="1.3333" d="M8.788 26.079c0.28 0.231 0.572 0.448 0.872 0.652 0.303 0.204 0.613 0.393 0.934 0.568 0.322 0.175 0.652 0.335 0.991 0.477 0.338 0.143 0.685 0.271 1.039 0.381 0.356 0.111 0.717 0.203 1.086 0.279s0.744 0.133 1.125 0.172c0.38 0.039 0.766 0.059 1.158 0.059 0.39 0 0.777-0.020 1.158-0.059s0.757-0.096 1.125-0.172c0.368-0.076 0.73-0.168 1.086-0.279 0.354-0.111 0.701-0.239 1.041-0.381 0.338-0.143 0.669-0.303 0.99-0.477 0.32-0.175 0.633-0.364 0.933-0.568 0.303-0.204 0.593-0.421 0.872-0.652l0.704-0.632c-0.12-0.141-0.49-0.519-0.625-0.645s-0.275-0.247-0.42-0.36-0.296-0.221-0.448-0.324c-0.155-0.103-0.323-0.195-0.5-0.279-0.18-0.083-0.369-0.157-0.564-0.228-0.196-0.068-0.396-0.132-0.598-0.193s-0.406-0.119-0.606-0.177c-0.201-0.059-0.397-0.117-0.588-0.177-0.188-0.061-0.371-0.124-0.538-0.195-0.169-0.068-0.327-0.144-0.466-0.227-0.139-0.083-0.261-0.173-0.363-0.276-0.027-0.027-0.193-1.699-0.193-1.699l0.193-0.252 0.193-0.251 0.195-0.251 0.192-0.251 0.195-0.251 0.193-0.252 0.387-0.501v-3.753c0-0.119-0.008-0.237-0.024-0.356-0.017-0.119-0.041-0.239-0.073-0.357-0.029-0.119-0.068-0.236-0.112-0.352-0.043-0.117-0.092-0.232-0.147-0.344-0.053-0.112-0.113-0.221-0.176-0.328-0.063-0.105-0.129-0.208-0.197-0.307-0.069-0.097-0.141-0.192-0.216-0.281-0.072-0.088-0.148-0.171-0.224-0.248s-0.156-0.151-0.239-0.22c-0.084-0.069-0.169-0.136-0.26-0.197-0.088-0.060-0.18-0.117-0.277-0.169-0.095-0.053-0.192-0.101-0.292-0.144-0.103-0.044-0.205-0.081-0.311-0.115s-0.212-0.061-0.321-0.084c-0.109-0.023-0.221-0.040-0.335-0.052s-0.228-0.017-0.344-0.017c-0.116 0-0.231 0.005-0.344 0.017s-0.224 0.029-0.333 0.052c-0.109 0.023-0.217 0.051-0.322 0.084s-0.208 0.071-0.308 0.115c-0.101 0.043-0.2 0.091-0.295 0.144-0.095 0.052-0.188 0.109-0.277 0.169-0.089 0.061-0.176 0.128-0.259 0.197-0.084 0.069-0.163 0.143-0.239 0.22-0.077 0.077-0.152 0.16-0.225 0.248-0.075 0.089-0.145 0.184-0.215 0.281-0.069 0.099-0.136 0.201-0.197 0.307-0.063 0.107-0.121 0.216-0.175 0.328-0.055 0.112-0.104 0.227-0.148 0.344-0.044 0.116-0.081 0.233-0.113 0.352-0.029 0.119-0.055 0.239-0.071 0.357s-0.025 0.237-0.025 0.356v3.753l0.386 0.501 0.193 0.252 0.773 1.003 0.193 0.252c0 0-0.181 1.687-0.192 1.699-0.101 0.103-0.227 0.196-0.368 0.28-0.14 0.084-0.297 0.159-0.466 0.229-0.171 0.069-0.353 0.133-0.542 0.195s-0.388 0.12-0.588 0.177c-0.2 0.059-0.405 0.117-0.608 0.177-0.201 0.061-0.404 0.125-0.597 0.195-0.196 0.069-0.384 0.143-0.564 0.227-0.179 0.083-0.346 0.173-0.498 0.276s-0.303 0.209-0.446 0.323c-0.145 0.112-0.285 0.232-0.42 0.357-0.132 0.127-0.502 0.501-0.622 0.643l0.705 0.635z"></path>
<path stroke-linejoin="round" stroke-linecap="round" stroke-miterlimit="4" stroke-width="1.3333" d="M25.154 21.33l-0.929-1.364c0.237-0.495 0.436-1.013 0.584-1.552l2.651-0.949c0.69-0.237 1.226-0.599 1.206-1.287l-0.049-1.479c-0.024-0.688-0.614-1.033-1.286-1.203l-2.704-0.513c-0.179-0.519-0.401-1.015-0.669-1.487l1.213-2.537c0.321-0.655 0.449-1.291-0.052-1.764l-1.074-1.012c-0.501-0.473-1.165-0.301-1.76 0.051l-2.281 1.541c-0.418-0.205-0.852-0.388-1.305-0.528l-0.858-2.668c-0.215-0.697-0.556-1.247-1.243-1.247h-1.478c-0.69 0-1.054 0.583-1.246 1.247l-0.597 2.676c-0.634 0.197-1.234 0.467-1.799 0.791l-2.543-1.203c-0.656-0.321-1.29-0.444-1.758 0.059l-1.010 1.079c-0.472 0.501-0.297 1.164 0.057 1.761l1.549 2.275c-0.241 0.495-0.436 1.016-0.584 1.555l-2.649 0.949c-0.69 0.237-1.226 0.599-1.205 1.285l0.049 1.48c0.023 0.685 0.613 1.031 1.283 1.204l2.707 0.512c0.181 0.519 0.402 1.013 0.666 1.484l-0.388 0.815"></path>
</symbol>
<symbol id="icon-arrow-down" viewBox="0 0 32 32">
<title>arrow-down</title>
<path stroke-linejoin="round" stroke-linecap="round" stroke-miterlimit="4" stroke-width="1.3333" d="M23.333 12.667l-7.333 7.333-7.333-7.333"></path>
</symbol>
<symbol id="icon-arrow-left" viewBox="0 0 32 32">
<title>arrow-left</title>
<path stroke-linejoin="round" stroke-linecap="round" stroke-miterlimit="4" stroke-width="1.3333" d="M19.333 24l-7.333-7.333 7.333-7.333"></path>
</symbol>
<symbol id="icon-arrow-right" viewBox="0 0 32 32">
<title>arrow-right</title>
<path stroke-linejoin="round" stroke-linecap="round" stroke-miterlimit="4" stroke-width="1.3333" d="M12 9.333l7.333 7.333-7.333 7.333"></path>
</symbol>
<symbol id="icon-arrow-up" viewBox="0 0 32 32">
<title>arrow-up</title>
<path stroke-linejoin="round" stroke-linecap="round" stroke-miterlimit="4" stroke-width="1.3333" d="M8.667 20l7.333-7.333 7.333 7.333"></path>
</symbol>
<symbol id="icon-bell" viewBox="0 0 32 32">
<title>bell</title>
<path stroke-linejoin="round" stroke-linecap="round" stroke-miterlimit="4" stroke-width="1.3333" d="M18.396 24.727c-0.104 0.153-0.223 0.297-0.353 0.427-0.131 0.132-0.273 0.249-0.427 0.353-0.155 0.104-0.319 0.193-0.492 0.267-0.172 0.073-0.353 0.129-0.541 0.168-0.188 0.037-0.383 0.059-0.583 0.059-0.199 0-0.393-0.021-0.581-0.059-0.189-0.039-0.371-0.095-0.543-0.168-0.173-0.073-0.337-0.163-0.491-0.267-0.155-0.104-0.297-0.221-0.428-0.353-0.131-0.129-0.249-0.273-0.353-0.427M23.222 22c0.799 0 1.444-0.597 1.444-1.333 0-2.667-2.667-1.129-2.888-8-0.055-1.666-0.588-3.922-2.14-5.335-0.88-0.8-2.071-1.332-3.639-1.332-1.572 0-2.765 0.532-3.645 1.333-1.545 1.409-2.077 3.654-2.132 5.334-0.223 6.871-2.889 5.333-2.889 8 0 0.736 0.647 1.333 1.445 1.333h14.444z"></path>
</symbol>
<symbol id="icon-bulb" viewBox="0 0 32 32">
<title>bulb</title>
<path d="M16.639 3.301c0-0.368-0.298-0.667-0.667-0.667s-0.667 0.298-0.667 0.667v4.149c0 0.368 0.299 0.667 0.667 0.667s0.667-0.298 0.667-0.667v-4.149zM25.438 7.47c0.26-0.26 0.26-0.682 0-0.943s-0.683-0.26-0.943 0l-2.933 2.933c-0.26 0.26-0.26 0.682 0 0.943s0.682 0.26 0.943 0l2.933-2.933zM7.47 6.575c-0.26-0.26-0.682-0.26-0.943 0s-0.26 0.682 0 0.943l2.933 2.933c0.26 0.26 0.682 0.26 0.943 0s0.26-0.682 0-0.943l-2.933-2.933zM24.559 15.329c-0.368-0.001-0.667 0.297-0.669 0.665s0.297 0.667 0.665 0.669l4.147 0.011c0.368 0.001 0.667-0.297 0.669-0.665s-0.297-0.667-0.665-0.669l-4.147-0.011zM3.301 15.374c-0.368 0-0.667 0.298-0.667 0.667s0.298 0.667 0.667 0.667h4.149c0.368 0 0.667-0.299 0.667-0.667s-0.298-0.667-0.667-0.667h-4.149zM14.73 28.032c-0.368 0-0.667 0.299-0.667 0.667s0.299 0.667 0.667 0.667h2.54c0.368 0 0.667-0.299 0.667-0.667s-0.299-0.667-0.667-0.667h-2.54zM15.975 10.254c-0.78 0-1.525 0.158-2.202 0.445l-0 0c-0.679 0.287-1.287 0.701-1.798 1.212-0.512 0.512-0.932 1.117-1.221 1.867-0.288 0.746-0.437 1.61-0.437 2.631 0 1.203 0.534 2.212 1.11 3.062 0.223 0.331 0.466 0.656 0.694 0.961l0 0c0.065 0.087 0.129 0.172 0.19 0.255 0.287 0.387 0.538 0.742 0.732 1.090l0.001 0.002c0.031 0.055 0.078 0.186 0.124 0.407 0.043 0.207 0.076 0.444 0.1 0.675 0.021 0.203 0.037 1.003 0.045 1.804 0.004 0.389 0.007 0.763 0.009 1.040l0.002 0.332 0 0.092 0 0.024 0 0.006v0.002c0.001 0.367 0.299 0.665 0.667 0.665h3.967c0.367 0 0.665-0.297 0.667-0.664v-0.002l0-0.006v-0.024l0-0.092 0.002-0.332c0.002-0.277 0.005-0.651 0.009-1.040 0.009-0.802 0.025-1.601 0.046-1.805 0.024-0.231 0.057-0.468 0.1-0.675 0.046-0.22 0.093-0.352 0.124-0.408 0.195-0.348 0.446-0.703 0.733-1.090 0.061-0.083 0.125-0.168 0.189-0.255 0.228-0.305 0.471-0.63 0.694-0.961 0.575-0.849 1.112-1.859 1.112-3.062 0-1.021-0.149-1.885-0.437-2.631-0.289-0.75-0.709-1.355-1.221-1.867-0.511-0.511-1.121-0.925-1.797-1.212l-0.001-0c-0.679-0.287-1.423-0.445-2.204-0.445zM18.907 21.777c0-0 0-0 0-0l-0.001 0.001c0-0 0-0 0-0.001zM15.975 25.492h-1.32c-0.002-0.246-0.004-0.54-0.007-0.842-0.008-0.761-0.023-1.645-0.053-1.928-0.027-0.255-0.065-0.542-0.121-0.809-0.053-0.253-0.133-0.547-0.266-0.784-0.239-0.429-0.535-0.843-0.825-1.235-0.069-0.093-0.138-0.185-0.206-0.276l-0-0c-0.225-0.301-0.442-0.591-0.646-0.893l-0.001-0.001c-0.529-0.781-0.881-1.516-0.881-2.314 0-0.891 0.13-1.587 0.348-2.151 0.216-0.561 0.528-1.012 0.92-1.404 0.391-0.391 0.857-0.708 1.374-0.927l0-0c0.516-0.218 1.084-0.34 1.683-0.34s1.167 0.121 1.685 0.34c0.517 0.219 0.983 0.536 1.374 0.927 0.392 0.392 0.704 0.843 0.92 1.404 0.218 0.564 0.348 1.26 0.348 2.151 0 0.798-0.353 1.533-0.882 2.314l-0.001 0.001c-0.204 0.302-0.421 0.593-0.646 0.895l-0 0c-0.067 0.090-0.136 0.182-0.205 0.275-0.29 0.392-0.586 0.805-0.825 1.234l-0.001 0.001c-0.132 0.237-0.211 0.531-0.264 0.784-0.056 0.267-0.094 0.553-0.121 0.809-0.030 0.283-0.045 1.167-0.053 1.928-0.003 0.303-0.006 0.596-0.008 0.842h-1.321z"></path>
</symbol>
<symbol id="icon-card" viewBox="0 0 32 32">
<title>card</title>
<path d="M4.667 8c-0.368 0-0.667 0.298-0.667 0.667v14.667c0 0.368 0.298 0.667 0.667 0.667h22.667c0.368 0 0.667-0.299 0.667-0.667v-14.667c0-0.368-0.299-0.667-0.667-0.667h-22.667zM26.667 13.333h-21.333v-4h21.333v4zM5.333 14.667h21.333v8h-21.333v-8z"></path>
</symbol>
<symbol id="icon-caret-down" viewBox="0 0 32 32">
<title>caret-down</title>
<path d="M12.001 13.333c-0.594 0-0.891 0.718-0.471 1.138l4 4c0.26 0.26 0.683 0.26 0.943 0l4-4c0.42-0.42 0.123-1.138-0.471-1.138h-8z"></path>
</symbol>
<symbol id="icon-caret-left" viewBox="0 0 32 32">
<title>caret-left</title>
<path d="M18.668 12c0-0.594-0.718-0.891-1.138-0.471l-4 4c-0.26 0.26-0.26 0.683 0 0.943l4 4c0.42 0.42 1.138 0.123 1.138-0.471v-8z"></path>
</symbol>
<symbol id="icon-caret-right" viewBox="0 0 32 32">
<title>caret-right</title>
<path d="M13.335 12c0-0.594 0.718-0.891 1.138-0.471l4 4c0.26 0.26 0.26 0.683 0 0.943l-4 4c-0.42 0.42-1.138 0.123-1.138-0.471v-8z"></path>
</symbol>
<symbol id="icon-caret-up" viewBox="0 0 32 32">
<title>caret-up</title>
<path d="M12.001 18.667c-0.594 0-0.891-0.718-0.471-1.138l4-4c0.26-0.26 0.683-0.26 0.943 0l4 4c0.42 0.42 0.123 1.138-0.471 1.138h-8z"></path>
</symbol>
<symbol id="icon-check-circle" viewBox="0 0 32 32">
<title>check-circle</title>
<path stroke-linejoin="round" stroke-linecap="round" stroke-miterlimit="4" stroke-width="1.3333" d="M3.333 16c0-6.996 5.672-12.667 12.667-12.667s12.667 5.671 12.667 12.667c0 6.996-5.672 12.667-12.667 12.667s-12.667-5.671-12.667-12.667z"></path>
<path stroke-linejoin="round" stroke-linecap="round" stroke-miterlimit="4" stroke-width="1.3333" d="M23.333 11.239l-9.428 9.428-4.619-4.713"></path>
</symbol>
<symbol id="icon-clock" viewBox="0 0 32 32">
<title>clock</title>
<path stroke-linejoin="round" stroke-linecap="round" stroke-miterlimit="4" stroke-width="1.3333" d="M6 16c0-5.523 4.477-10 10-10s10 4.477 10 10c0 5.523-4.477 10-10 10s-10-4.477-10-10z"></path>
<path stroke-linejoin="round" stroke-linecap="round" stroke-miterlimit="4" stroke-width="1.3333" d="M17.25 11v6.25h-5"></path>
</symbol>
<symbol id="icon-cog" viewBox="0 0 32 32">
<title>cog</title>
<path stroke-linejoin="round" stroke-linecap="round" stroke-miterlimit="4" stroke-width="1.3333" d="M16 19.344c-0.391 0-0.766-0.067-1.115-0.191s-0.67-0.304-0.955-0.528c-0.387-0.307-0.705-0.696-0.926-1.143-0.22-0.447-0.344-0.95-0.344-1.482 0-0.462 0.092-0.901 0.261-1.301s0.413-0.76 0.716-1.063c0.301-0.303 0.662-0.548 1.062-0.718 0.4-0.171 0.84-0.264 1.302-0.264 0.448 0 0.874 0.088 1.265 0.248s0.744 0.392 1.043 0.679c0.318 0.306 0.576 0.672 0.754 1.082 0.087 0.197 0.155 0.404 0.201 0.62 0.051 0.231 0.076 0.471 0.076 0.716M27.29 14.841c-0.021-0.615-0.55-0.924-1.151-1.077l-2.42-0.46c-0.16-0.464-0.359-0.908-0.598-1.33l1.086-2.272c0.288-0.586 0.401-1.154-0.047-1.578l-0.961-0.907c-0.449-0.423-1.042-0.269-1.575 0.045l-2.042 1.381c-0.375-0.184-0.762-0.347-1.167-0.472l-0.768-2.389c-0.192-0.624-0.497-1.115-1.113-1.115h-1.322c-0.618 0-0.945 0.52-1.114 1.115l-0.536 2.395c-0.566 0.177-1.103 0.419-1.61 0.71l-2.275-1.077c-0.588-0.288-1.154-0.398-1.573 0.051l-0.905 0.966c-0.42 0.45-0.264 1.043 0.052 1.577l1.386 2.037c-0.216 0.443-0.39 0.908-0.524 1.393l-2.368 0.849c-0.62 0.213-1.098 0.536-1.079 1.151l0.045 1.325c0.019 0.614 0.546 0.923 1.147 1.078l2.421 0.459c0.163 0.464 0.361 0.907 0.597 1.329l-1.083 2.275c-0.29 0.587-0.401 1.151 0.044 1.577l0.964 0.907c0.446 0.424 1.041 0.268 1.574-0.044l2.044-1.383c0.376 0.184 0.761 0.347 1.163 0.471l0.769 2.393c0.191 0.624 0.498 1.115 1.114 1.115h1.322c0.616 0 0.942-0.522 1.115-1.115l0.534-2.4c0.564-0.177 1.099-0.418 1.605-0.707l2.277 1.078c0.586 0.287 1.154 0.399 1.575-0.051l0.905-0.966c0.42-0.451 0.264-1.043-0.052-1.577l-1.389-2.038c0.213-0.443 0.39-0.907 0.524-1.39l2.371-0.85c0.618-0.213 1.098-0.535 1.078-1.151l-0.043-1.325z"></path>
</symbol>
<symbol id="icon-copy-password" viewBox="0 0 32 32">
<title>copy-password</title>
<path d="M6.667 6c0-0.368 0.298-0.667 0.667-0.667h2.667c0.368 0 0.667 0.298 0.667 0.667s-0.298 0.667-0.667 0.667h-2v0.667c0 0.368-0.298 0.667-0.667 0.667s-0.667-0.298-0.667-0.667v-1.333zM18 5.333c-0.368 0-0.667 0.298-0.667 0.667s0.299 0.667 0.667 0.667h2v0.667c0 0.368 0.299 0.667 0.667 0.667s0.667-0.298 0.667-0.667v-1.333c0-0.368-0.299-0.667-0.667-0.667h-2.667zM11.333 9.333c-0.368 0-0.667 0.298-0.667 0.667v16c0 0.368 0.298 0.667 0.667 0.667h13.333c0.368 0 0.667-0.299 0.667-0.667v-16c0-0.368-0.299-0.667-0.667-0.667h-13.333zM12 25.333v-14.667h12v14.667h-12zM8 20.667c0-0.368-0.298-0.667-0.667-0.667s-0.667 0.299-0.667 0.667v1.333c0 0.368 0.298 0.667 0.667 0.667h1.333c0.368 0 0.667-0.299 0.667-0.667s-0.298-0.667-0.667-0.667h-0.667v-0.667zM12 6c0-0.368 0.298-0.667 0.667-0.667h2.667c0.368 0 0.667 0.298 0.667 0.667s-0.299 0.667-0.667 0.667h-2.667c-0.368 0-0.667-0.298-0.667-0.667zM7.333 9.334c0.368 0 0.667 0.298 0.667 0.667v2.667c0 0.368-0.298 0.667-0.667 0.667s-0.667-0.298-0.667-0.667v-2.667c0-0.368 0.298-0.667 0.667-0.667zM7.333 14.667c0.368 0 0.667 0.299 0.667 0.667v2.667c0 0.368-0.298 0.667-0.667 0.667s-0.667-0.298-0.667-0.667v-2.667c0-0.368 0.298-0.667 0.667-0.667zM19.969 19.86l-0.92-1.333 1.493-0.413c0.368-0.115 0.575-0.504 0.46-0.873-0.113-0.368-0.505-0.575-0.872-0.46l-1.468 0.467v-1.48c0-0.368-0.299-0.667-0.667-0.667-0.367 0-0.667 0.299-0.667 0.667v1.467l-1.507-0.467c-0.168-0.057-0.352-0.043-0.509 0.040-0.156 0.084-0.272 0.228-0.317 0.4-0.053 0.168-0.036 0.351 0.045 0.507 0.084 0.156 0.225 0.271 0.395 0.32l1.493 0.467-0.947 1.333c-0.211 0.3-0.145 0.713 0.148 0.933 0.113 0.077 0.248 0.12 0.387 0.12 0.217 0.004 0.421-0.101 0.547-0.28l0.919-1.333 0.88 1.333c0.213 0.3 0.623 0.381 0.935 0.187 0.3-0.212 0.377-0.627 0.172-0.933z"></path>
</symbol>
<symbol id="icon-copy" viewBox="0 0 32 32">
<title>copy</title>
<path d="M7.333 5.333c-0.368 0-0.667 0.298-0.667 0.667v1.333c0 0.368 0.298 0.667 0.667 0.667s0.667-0.298 0.667-0.667v-0.667h2c0.368 0 0.667-0.298 0.667-0.667s-0.298-0.667-0.667-0.667h-2.667zM17.333 6c0-0.368 0.299-0.667 0.667-0.667h2.667c0.368 0 0.667 0.298 0.667 0.667v1.333c0 0.368-0.299 0.667-0.667 0.667s-0.667-0.298-0.667-0.667v-0.667h-2c-0.368 0-0.667-0.298-0.667-0.667zM10.667 10c0-0.368 0.298-0.667 0.667-0.667h13.333c0.368 0 0.667 0.298 0.667 0.667v16c0 0.368-0.299 0.667-0.667 0.667h-13.333c-0.368 0-0.667-0.299-0.667-0.667v-16zM7.333 20c0.368 0 0.667 0.299 0.667 0.667v0.667h0.667c0.368 0 0.667 0.299 0.667 0.667s-0.298 0.667-0.667 0.667h-1.333c-0.368 0-0.667-0.299-0.667-0.667v-1.333c0-0.368 0.298-0.667 0.667-0.667zM12.667 5.333c-0.368 0-0.667 0.298-0.667 0.667s0.298 0.667 0.667 0.667h2.667c0.368 0 0.667-0.298 0.667-0.667s-0.299-0.667-0.667-0.667h-2.667zM12 10.667v14.667h12v-14.667h-12zM8 10c0-0.368-0.298-0.667-0.667-0.667s-0.667 0.298-0.667 0.667v2.667c0 0.368 0.298 0.667 0.667 0.667s0.667-0.298 0.667-0.667v-2.667zM8 15.333c0-0.368-0.298-0.667-0.667-0.667s-0.667 0.299-0.667 0.667v2.667c0 0.368 0.298 0.667 0.667 0.667s0.667-0.299 0.667-0.667v-2.667z"></path>
</symbol>
<symbol id="icon-cross-circle" viewBox="0 0 32 32">
<title>cross-circle</title>
<path stroke-linejoin="round" stroke-linecap="round" stroke-miterlimit="4" stroke-width="1.3333" d="M11.286 20.714l9.427-9.428M20.714 20.714l-9.427-9.428M5.333 16c0-5.891 4.776-10.667 10.667-10.667s10.667 4.776 10.667 10.667c0 5.891-4.776 10.667-10.667 10.667s-10.667-4.776-10.667-10.667z"></path>
</symbol>
<symbol id="icon-cross" viewBox="0 0 32 32">
<title>cross</title>
<path d="M8.195 8.195c0.26-0.26 0.682-0.26 0.943 0l6.862 6.862 6.862-6.862c0.26-0.26 0.683-0.26 0.943 0s0.26 0.682 0 0.943l-6.862 6.862 6.862 6.862c0.26 0.26 0.26 0.683 0 0.943s-0.683 0.26-0.943 0l-6.862-6.862-6.862 6.862c-0.26 0.26-0.682 0.26-0.943 0s-0.26-0.683 0-0.943l6.862-6.862-6.862-6.862c-0.26-0.26-0.26-0.682 0-0.943z"></path>
</symbol>
<symbol id="icon-device-sync" viewBox="0 0 32 32">
<title>device-sync</title>
<path d="M14.988 16.486c-0.601 0-1.196-0.081-1.779-0.244-0.829-0.232-1.599-0.617-2.284-1.145-0.292-0.225-0.345-0.644-0.12-0.936 0.227-0.292 0.647-0.343 0.935-0.12 0.549 0.423 1.164 0.732 1.829 0.917 0.685 0.192 1.399 0.241 2.111 0.149 0.715-0.091 1.389-0.32 2.005-0.68 0.596-0.347 1.112-0.801 1.536-1.349 0.225-0.293 0.641-0.344 0.935-0.121 0.292 0.224 0.345 0.643 0.121 0.935-0.529 0.685-1.175 1.255-1.92 1.688-0.772 0.451-1.616 0.737-2.508 0.851-0.287 0.037-0.575 0.056-0.861 0.056z"></path>
<path d="M20.769 16.646c-0.368 0-0.667-0.299-0.667-0.667v-2.645h-2.688c-0.368 0-0.667-0.299-0.667-0.667 0-0.369 0.299-0.667 0.667-0.667h3.355c0.368 0 0.667 0.297 0.667 0.667v3.312c0 0.368-0.299 0.667-0.667 0.667zM12.354 10.495c-0.143 0-0.285-0.045-0.408-0.139-0.291-0.224-0.344-0.643-0.12-0.935 0.528-0.685 1.173-1.253 1.92-1.688 0.772-0.451 1.616-0.737 2.507-0.851 0.892-0.116 1.781-0.052 2.641 0.188 0.832 0.232 1.6 0.619 2.283 1.147 0.292 0.225 0.345 0.644 0.12 0.936-0.225 0.291-0.643 0.344-0.935 0.119-0.547-0.423-1.161-0.731-1.827-0.917-0.688-0.192-1.397-0.243-2.113-0.149-0.712 0.091-1.387 0.32-2.004 0.68-0.596 0.348-1.113 0.803-1.536 1.349-0.131 0.171-0.329 0.26-0.528 0.26z"></path>
<path d="M14.687 11.313h-3.355c-0.368 0-0.667-0.299-0.667-0.667v-3.312c0-0.369 0.299-0.667 0.667-0.667 0.369 0 0.667 0.297 0.667 0.667v2.645h2.688c0.368 0 0.667 0.299 0.667 0.667s-0.299 0.667-0.667 0.667zM28.667 28h-21.333c-0.368 0-0.667-0.299-0.667-0.667s0.299-0.667 0.667-0.667h20.667v-0.539l-2.452-6.156h-19.096l-2.452 6.156v1.205c0 0.368-0.299 0.667-0.667 0.667s-0.667-0.299-0.667-0.667v-1.333c0-0.084 0.016-0.168 0.047-0.247l2.667-6.695c0.101-0.253 0.347-0.42 0.62-0.42h20c0.273 0 0.519 0.167 0.62 0.42l2.667 6.695c0.031 0.079 0.047 0.163 0.047 0.247v1.333c0 0.368-0.299 0.667-0.667 0.667z"></path>
<path d="M26 19.973c-0.368 0-0.667-0.299-0.667-0.667v-13.275c0-0.385-0.312-0.697-0.697-0.697h-17.272c-0.385 0-0.697 0.312-0.697 0.696v13.276c0 0.368-0.299 0.667-0.667 0.667s-0.667-0.299-0.667-0.667v-13.276c0-1.119 0.912-2.029 2.031-2.029h17.272c1.119 0 2.031 0.911 2.031 2.031v13.275c0 0.368-0.299 0.667-0.667 0.667z"></path>
</symbol>
<symbol id="icon-dot-menu" viewBox="0 0 32 32">
<title>dot-menu</title>
<path d="M9.333 17.333c0.737 0 1.333-0.597 1.333-1.333s-0.596-1.333-1.333-1.333c-0.737 0-1.333 0.597-1.333 1.333s0.596 1.333 1.333 1.333zM16 17.333c0.737 0 1.333-0.597 1.333-1.333s-0.596-1.333-1.333-1.333c-0.737 0-1.333 0.597-1.333 1.333s0.596 1.333 1.333 1.333zM24 16c0 0.736-0.596 1.333-1.333 1.333s-1.333-0.597-1.333-1.333c0-0.736 0.596-1.333 1.333-1.333s1.333 0.597 1.333 1.333z"></path>
</symbol>
<symbol id="icon-download" viewBox="0 0 32 32">
<title>download</title>
<path d="M16.22 22.687h7.141c2.645 0 4.639-1.867 4.639-4.341 0-2.243-1.716-4.173-3.991-4.488-0.317-0.043-0.559-0.307-0.575-0.627-0.020-0.431-0.368-0.767-0.791-0.767-0.333 0-0.62-0.245-0.667-0.575-0.308-2.217-2.22-3.891-4.447-3.891-1.888 0-3.588 1.205-4.231 2.997-0.063 0.175-0.195 0.315-0.365 0.388-0.172 0.072-0.363 0.072-0.532-0.003-0.492-0.217-1.008-0.328-1.533-0.328-2.080 0-3.773 1.667-3.773 3.716 0.011 0.059 0.017 0.111 0.020 0.164 0.012 0.293-0.171 0.56-0.448 0.656-1.596 0.555-2.668 1.976-2.668 3.535 0 1.997 1.753 3.563 3.992 3.563h8.228zM23.361 24.021h-15.369c-2.985 0-5.325-2.151-5.325-4.896 0-1.969 1.228-3.767 3.103-4.611 0.136-2.665 2.371-4.793 5.1-4.793 0.489 0 0.969 0.071 1.437 0.209 0.976-1.976 2.999-3.264 5.224-3.264 2.719 0 5.076 1.92 5.676 4.541 0.695 0.192 1.247 0.727 1.464 1.417 2.689 0.595 4.663 2.976 4.663 5.721 0 3.181-2.623 5.675-5.972 5.675z"></path>
<path d="M19.333 16.021c0.171 0 0.341 0.065 0.472 0.195 0.26 0.261 0.26 0.683 0 0.944l-2.667 2.667c-0.261 0.26-0.683 0.26-0.944 0-0.26-0.261-0.26-0.683 0-0.944l2.667-2.667c0.131-0.129 0.301-0.195 0.472-0.195z"></path>
<path d="M14 16.021c0.171 0 0.341 0.065 0.472 0.195l2.667 2.667c0.26 0.261 0.26 0.683 0 0.944-0.261 0.26-0.683 0.26-0.944 0l-2.667-2.667c-0.26-0.261-0.26-0.683 0-0.944 0.131-0.129 0.301-0.195 0.472-0.195z"></path>
<path d="M16.667 12.021c0.368 0 0.667 0.299 0.667 0.667v6.667c0 0.368-0.299 0.667-0.667 0.667s-0.667-0.299-0.667-0.667v-6.667c0-0.368 0.299-0.667 0.667-0.667z"></path>
</symbol>
<symbol id="icon-drop" viewBox="0 0 32 32">
<title>drop</title>
<path stroke-linejoin="round" stroke-linecap="round" stroke-miterlimit="4" stroke-width="1.3333" d="M20.331 20.667c0.045 0.392 0.005 0.793-0.123 1.171-0.127 0.377-0.343 0.733-0.643 1.033-0.261 0.261-0.563 0.457-0.884 0.588-0.323 0.131-0.664 0.196-1.005 0.196-0.344 0.001-0.687-0.064-1.009-0.195"></path>
<path stroke-linejoin="round" stroke-linecap="round" stroke-miterlimit="4" stroke-width="1.3333" d="M8.667 19.858c0-2.261 1.995-5.293 4-8.525 2.005-3.231 4.021-6.667 4.021-6.667s1.973 3.436 3.979 6.667c2.005 3.232 4.041 6.264 4.041 8.525 0 0.553-0.056 1.095-0.163 1.617-0.107 0.521-0.264 1.024-0.467 1.505-0.204 0.479-0.452 0.936-0.74 1.361-0.288 0.428-0.617 0.824-0.979 1.188-0.364 0.363-0.761 0.691-1.188 0.979s-0.883 0.537-1.363 0.74c-0.48 0.203-0.984 0.36-1.505 0.468-0.523 0.107-1.063 0.163-1.616 0.163s-1.095-0.056-1.616-0.163c-0.523-0.108-1.027-0.265-1.507-0.468s-0.935-0.452-1.363-0.74c-0.427-0.288-0.824-0.616-1.187-0.979-0.363-0.364-0.692-0.76-0.98-1.188-0.287-0.425-0.536-0.883-0.739-1.361-0.204-0.481-0.361-0.984-0.468-1.505-0.107-0.523-0.163-1.064-0.163-1.617z"></path>
</symbol>
<symbol id="icon-emergency" viewBox="0 0 32 32">
<title>emergency</title>
<path d="M12.667 6.667c-0.368 0-0.667 0.298-0.667 0.667v3.333h-6c-0.368 0-0.667 0.298-0.667 0.667v13.333c0 0.368 0.298 0.667 0.667 0.667h21.333c0.368 0 0.667-0.299 0.667-0.667v-13.333c0-0.368-0.299-0.667-0.667-0.667h-6v-3.333c0-0.368-0.299-0.667-0.667-0.667h-8zM20 10.667h-6.667v-2.667h6.667v2.667zM12.667 12h14v12h-20v-12h6zM16.667 14.667c0.368 0 0.667 0.299 0.667 0.667v2h2c0.368 0 0.667 0.299 0.667 0.667s-0.299 0.667-0.667 0.667h-2v2c0 0.368-0.299 0.667-0.667 0.667s-0.667-0.299-0.667-0.667v-2h-2c-0.368 0-0.667-0.299-0.667-0.667s0.299-0.667 0.667-0.667h2v-2c0-0.368 0.299-0.667 0.667-0.667z"></path>
</symbol>
<symbol id="icon-folder" viewBox="0 0 32 32">
<title>folder</title>
<path stroke-linejoin="round" stroke-linecap="round" stroke-miterlimit="4" stroke-width="1.3333" d="M27.337 23.573l-22.671-0.028 0.049-16.212h7.951l2.667 2.879h12l0.004 13.361z"></path>
<path stroke-linejoin="round" stroke-linecap="round" stroke-miterlimit="4" stroke-width="1.3333" d="M27.338 14.24l-20.004-0.028"></path>
</symbol>
<symbol id="icon-go-to" viewBox="0 0 32 32">
<title>go-to</title>
<path d="M26 5.333c0.368 0 0.667 0.298 0.667 0.667v5.657c0 0.368-0.299 0.667-0.667 0.667s-0.667-0.298-0.667-0.667v-4.047l-8.29 8.29c-0.26 0.26-0.683 0.26-0.943 0s-0.26-0.683 0-0.943l8.29-8.29h-4.047c-0.368 0-0.667-0.298-0.667-0.667s0.299-0.667 0.667-0.667h5.633c0.008-0 0.015-0 0.023-0zM7.333 6.667c-0.368 0-0.667 0.298-0.667 0.667v17.333c0 0.368 0.298 0.667 0.667 0.667h17.333c0.368 0 0.667-0.299 0.667-0.667v-8c0-0.368-0.299-0.667-0.667-0.667s-0.667 0.299-0.667 0.667v7.333h-16v-16h7.333c0.368 0 0.667-0.298 0.667-0.667s-0.299-0.667-0.667-0.667h-8z"></path>
</symbol>
<symbol id="icon-grid-toggle" viewBox="0 0 32 32">
<title>grid-toggle</title>
<path stroke-linejoin="round" stroke-linecap="round" stroke-miterlimit="4" stroke-width="1.3333" d="M7.333 15.333h4v-4h-4v4z"></path>
<path stroke-linejoin="round" stroke-linecap="round" stroke-miterlimit="4" stroke-width="1.3333" d="M14 15.333h4v-4h-4v4z"></path>
<path stroke-linejoin="round" stroke-linecap="round" stroke-miterlimit="4" stroke-width="1.3333" d="M20.667 15.333h4v-4h-4v4z"></path>
<path stroke-linejoin="round" stroke-linecap="round" stroke-miterlimit="4" stroke-width="1.3333" d="M7.333 22h4v-4h-4v4z"></path>
<path stroke-linejoin="round" stroke-linecap="round" stroke-miterlimit="4" stroke-width="1.3333" d="M14 22h4v-4h-4v4z"></path>
<path stroke-linejoin="round" stroke-linecap="round" stroke-miterlimit="4" stroke-width="1.3333" d="M20.667 22h4v-4h-4v4z"></path>
</symbol>
<symbol id="icon-grid" viewBox="0 0 32 32">
<title>grid</title>
<path stroke-linejoin="round" stroke-linecap="round" stroke-miterlimit="4" stroke-width="1.3333" d="M10 16.007c0 0.368-0.299 0.667-0.667 0.667s-0.667-0.299-0.667-0.667c0-0.368 0.299-0.667 0.667-0.667s0.667 0.299 0.667 0.667zM10 21.34c0 0.368-0.299 0.667-0.667 0.667s-0.667-0.299-0.667-0.667c0-0.368 0.299-0.667 0.667-0.667s0.667 0.299 0.667 0.667zM10 10.667c0 0.368-0.299 0.667-0.667 0.667s-0.667-0.299-0.667-0.667c0-0.368 0.299-0.667 0.667-0.667s0.667 0.299 0.667 0.667zM16.667 16.007c0 0.368-0.299 0.667-0.667 0.667s-0.667-0.299-0.667-0.667c0-0.368 0.299-0.667 0.667-0.667s0.667 0.299 0.667 0.667zM16.667 21.34c0 0.368-0.299 0.667-0.667 0.667s-0.667-0.299-0.667-0.667c0-0.368 0.299-0.667 0.667-0.667s0.667 0.299 0.667 0.667zM16.667 10.667c0 0.368-0.299 0.667-0.667 0.667s-0.667-0.299-0.667-0.667c0-0.368 0.299-0.667 0.667-0.667s0.667 0.299 0.667 0.667zM23.327 16.007c0 0.368-0.299 0.667-0.667 0.667-0.367 0-0.667-0.299-0.667-0.667s0.3-0.667 0.667-0.667c0.368 0 0.667 0.299 0.667 0.667zM23.327 21.34c0 0.368-0.299 0.667-0.667 0.667-0.367 0-0.667-0.299-0.667-0.667s0.3-0.667 0.667-0.667c0.368 0 0.667 0.299 0.667 0.667zM23.327 10.667c0 0.368-0.299 0.667-0.667 0.667-0.367 0-0.667-0.299-0.667-0.667s0.3-0.667 0.667-0.667c0.368 0 0.667 0.299 0.667 0.667z"></path>
</symbol>
<symbol id="icon-help" viewBox="0 0 32 32">
<title>help</title>
<path stroke-linejoin="round" stroke-linecap="round" stroke-miterlimit="4" stroke-width="1.3333" d="M16 4.667c7.333 0 11.334 4.914 11.334 9.688 0 3.052-1.373 5.638-3.985 7.295 0.029 1.091 0.015 5.684 0.015 5.684s-5.317-2.836-7.364-4.337c-7.332 0-11.333-3.87-11.333-8.642 0-4.774 4.001-9.688 11.333-9.688z"></path>
<path stroke-linejoin="round" stroke-linecap="round" stroke-miterlimit="4" stroke-width="1.3333" d="M16.013 15.559c-0.009-0.284 0.091-0.733 0.707-1.311 0.284-0.267 1.276-0.871 1.311-1.724 0.039-0.957-0.577-1.733-1.621-1.845-0.989-0.107-2.319 0.525-2.353 1.664"></path>
<path d="M16.722 18.001c0 0.368-0.299 0.667-0.667 0.667s-0.667-0.299-0.667-0.667c0-0.368 0.299-0.667 0.667-0.667s0.667 0.299 0.667 0.667z"></path>
</symbol>
<symbol id="icon-history" viewBox="0 0 32 32">
<title>history</title>
<path stroke-linejoin="round" stroke-linecap="round" stroke-miterlimit="4" stroke-width="1.3333" d="M16 9.725v6.275l3.765 2.509"></path>
<path stroke-linejoin="round" stroke-linecap="round" stroke-miterlimit="4" stroke-width="1.3333" d="M5.961 16c0-5.544 4.495-10.039 10.039-10.039s10.039 4.495 10.039 10.039c0 5.544-4.495 10.039-10.039 10.039s-10.039-4.495-10.039-10.039z"></path>
<path stroke-linejoin="round" stroke-linecap="round" stroke-miterlimit="4" stroke-width="1.3333" d="M14.505 22.095c-2.744-0.67-4.78-3.145-4.78-6.095 0-1.351 0.428-2.603 1.155-3.628"></path>
</symbol>
<symbol id="icon-id" viewBox="0 0 32 32">
<title>id</title>
<path d="M4 7.333c0-0.368 0.298-0.667 0.667-0.667h22.667c0.368 0 0.667 0.298 0.667 0.667v16c0 0.368-0.299 0.667-0.667 0.667h-22.667c-0.368 0-0.667-0.299-0.667-0.667v-16zM5.333 8v14.667h21.333v-14.667h-21.333z"></path>
<path d="M18.667 12.667c0-0.368 0.299-0.667 0.667-0.667h4c0.368 0 0.667 0.298 0.667 0.667s-0.299 0.667-0.667 0.667h-4c-0.368 0-0.667-0.298-0.667-0.667zM18.667 15.333c0-0.368 0.299-0.667 0.667-0.667h2.667c0.368 0 0.667 0.299 0.667 0.667s-0.299 0.667-0.667 0.667h-2.667c-0.368 0-0.667-0.299-0.667-0.667z"></path>
<path d="M7.987 11.333c0-0.368 0.298-0.667 0.667-0.667h3.944c0.368 0 0.667 0.298 0.667 0.667s-0.298 0.667-0.667 0.667h-3.277v3.333c0 0.368-0.298 0.667-0.667 0.667s-0.667-0.299-0.667-0.667v-4z"></path>
<path d="M14 13.333c0.368 0 0.667 0.299 0.667 0.667v3.941c0 0.368-0.299 0.667-0.667 0.667h-4c-0.368 0-0.667-0.299-0.667-0.667s0.298-0.667 0.667-0.667h3.333v-3.275c0-0.368 0.299-0.667 0.667-0.667z"></path>
</symbol>
<symbol id="icon-info-circle" viewBox="0 0 33 32">
<title>info-circle</title>
<path stroke-linejoin="round" stroke-linecap="round" stroke-miterlimit="4" stroke-width="1.3333" d="M18 15.333v6.667M7.333 16.667c0-5.891 4.776-10.667 10.667-10.667s10.667 4.776 10.667 10.667c0 5.891-4.776 10.667-10.667 10.667s-10.667-4.776-10.667-10.667z"></path>
<path d="M19.333 11.333c0-0.737-0.596-1.333-1.333-1.333s-1.333 0.596-1.333 1.333c0 0.737 0.596 1.333 1.333 1.333s1.333-0.596 1.333-1.333z"></path>
</symbol>
<symbol id="icon-key" viewBox="0 0 33 32">
<title>key</title>
<path stroke-linejoin="round" stroke-linecap="round" stroke-miterlimit="4" stroke-width="1.3333" d="M15.333 14h10.667l2.667 2.667-2.667 2.667-2.667-1.333-2.667 1.333-2.667-1.333"></path>
<path stroke-linejoin="round" stroke-linecap="round" stroke-miterlimit="4" stroke-width="1.3333" d="M3.333 16c0-3.313 2.687-6 6-6s6 2.687 6 6c0 3.313-2.687 6-6 6s-6-2.687-6-6z"></path>
<path stroke-linejoin="round" stroke-linecap="round" stroke-miterlimit="4" stroke-width="1.3333" d="M8 18c-0.552 0-1.052-0.224-1.415-0.585-0.361-0.363-0.585-0.863-0.585-1.415s0.224-1.052 0.585-1.415c0.363-0.361 0.863-0.585 1.415-0.585"></path>
</symbol>
<symbol id="icon-list" viewBox="0 0 32 32">
<title>list</title>
<path d="M6.667 10.667c0-0.736 0.597-1.333 1.333-1.333s1.333 0.597 1.333 1.333c0 0.736-0.597 1.333-1.333 1.333s-1.333-0.597-1.333-1.333zM12 10.667c0-0.368 0.298-0.667 0.667-0.667h12c0.368 0 0.667 0.298 0.667 0.667s-0.299 0.667-0.667 0.667h-12c-0.368 0-0.667-0.298-0.667-0.667zM6.667 16.007c0-0.736 0.597-1.333 1.333-1.333s1.333 0.597 1.333 1.333c0 0.736-0.597 1.333-1.333 1.333s-1.333-0.597-1.333-1.333zM12 16.007c0-0.368 0.298-0.667 0.667-0.667h12c0.368 0 0.667 0.299 0.667 0.667s-0.299 0.667-0.667 0.667h-12c-0.368 0-0.667-0.299-0.667-0.667zM6.667 21.34c0-0.736 0.597-1.333 1.333-1.333s1.333 0.597 1.333 1.333c0 0.736-0.597 1.333-1.333 1.333s-1.333-0.597-1.333-1.333zM12 21.34c0-0.368 0.298-0.667 0.667-0.667h12c0.368 0 0.667 0.299 0.667 0.667s-0.299 0.667-0.667 0.667h-12c-0.368 0-0.667-0.299-0.667-0.667z"></path>
</symbol>
<symbol id="icon-lock-small" viewBox="0 0 32 32">
<title>lock-small</title>
<path stroke-linejoin="round" stroke-linecap="round" stroke-miterlimit="4" stroke-width="1.3333" d="M20 16.667v5.333h-8v-5.333h8z"></path>
<path stroke-linejoin="round" stroke-linecap="round" stroke-miterlimit="4" stroke-width="1.3333" d="M18.667 16.667v-3.963c0-0.747-0.299-1.423-0.781-1.912-0.481-0.489-1.148-0.792-1.885-0.792s-1.404 0.303-1.885 0.792c-0.483 0.489-0.781 1.165-0.781 1.912"></path>
</symbol>
<symbol id="icon-lock" viewBox="0 0 32 32">
<title>lock</title>
<path stroke-linejoin="round" stroke-linecap="round" stroke-miterlimit="4" stroke-width="1.3333" d="M8.667 27.333h17.333v-12h-17.333v12z"></path>
<path stroke-linejoin="round" stroke-linecap="round" stroke-miterlimit="4" stroke-width="1.3333" d="M23.316 15.333v-4.592c0-0.839-0.167-1.637-0.471-2.364-0.303-0.728-0.741-1.381-1.283-1.932-0.544-0.549-1.189-0.995-1.905-1.301-0.717-0.308-1.505-0.477-2.332-0.477-0.828 0-1.616 0.169-2.333 0.477-0.716 0.307-1.363 0.752-1.904 1.301-0.543 0.551-0.981 1.204-1.284 1.932-0.303 0.727-0.471 1.525-0.471 2.364M17.324 23.353c-0.236 0-0.461-0.041-0.671-0.115-0.209-0.075-0.404-0.183-0.575-0.317-0.232-0.184-0.424-0.419-0.557-0.687-0.132-0.269-0.207-0.571-0.207-0.891 0-0.277 0.056-0.541 0.157-0.781 0.103-0.24 0.248-0.457 0.431-0.639 0.18-0.183 0.397-0.329 0.639-0.432 0.24-0.103 0.505-0.159 0.783-0.159 0.269 0 0.527 0.053 0.76 0.149 0.236 0.096 0.448 0.236 0.628 0.408 0.192 0.184 0.347 0.404 0.455 0.651"></path>
</symbol>
<symbol id="icon-log-out" viewBox="0 0 32 32">
<title>log-out</title>
<path stroke-linejoin="round" stroke-linecap="round" stroke-miterlimit="4" stroke-width="1.3333" d="M21.964 8.488c0.568 0.384 1.096 0.82 1.58 1.303 0.481 0.483 0.919 1.011 1.301 1.579 0.383 0.567 0.713 1.175 0.983 1.812 0.272 0.639 0.48 1.307 0.623 2.001s0.216 1.415 0.216 2.151c0 0.736-0.073 1.455-0.216 2.149s-0.351 1.364-0.623 2.003c-0.269 0.637-0.6 1.244-0.983 1.811-0.383 0.568-0.82 1.097-1.301 1.58-0.484 0.481-1.012 0.919-1.58 1.303-0.568 0.383-1.173 0.713-1.811 0.983-0.639 0.271-1.309 0.48-2.003 0.621-0.695 0.143-1.413 0.217-2.151 0.217-0.736 0-1.455-0.075-2.149-0.217-0.693-0.141-1.364-0.351-2.003-0.621-0.637-0.269-1.244-0.6-1.811-0.983-0.568-0.384-1.097-0.821-1.58-1.303-0.481-0.483-0.919-1.012-1.301-1.58-0.384-0.567-0.715-1.173-0.984-1.811-0.271-0.639-0.479-1.308-0.623-2.003-0.141-0.695-0.216-1.413-0.216-2.149s0.075-1.456 0.216-2.151c0.144-0.695 0.352-1.363 0.623-2.001 0.269-0.637 0.6-1.245 0.984-1.812 0.383-0.568 0.82-1.096 1.301-1.579 0.483-0.483 1.012-0.919 1.58-1.303M16 18.667v-14.667"></path>
</symbol>
<symbol id="icon-network" viewBox="0 0 32 32">
<title>network</title>
<path d="M23.67 2.873c-1.166-0.397-2.386-0.282-3.408 0.226-1.024 0.508-1.854 1.408-2.25 2.578-0.118 0.349 0.069 0.727 0.418 0.845s0.727-0.069 0.845-0.418c0.279-0.824 0.861-1.455 1.579-1.811l0.001-0c0.716-0.356 1.568-0.436 2.385-0.158 0.816 0.279 1.443 0.864 1.798 1.588s0.435 1.581 0.157 2.405c-0.279 0.823-0.861 1.454-1.579 1.81s-1.569 0.436-2.385 0.157c-0.348-0.119-0.727 0.067-0.847 0.415s0.067 0.727 0.415 0.847c1.167 0.399 2.386 0.282 3.408-0.224l0.001-0c1.023-0.507 1.854-1.408 2.25-2.578l0-0.001c0.394-1.17 0.28-2.392-0.224-3.418s-1.398-1.863-2.564-2.262l-0.001-0zM8.397 12.049c-1.226 0-2.335 0.5-3.135 1.305s-1.297 1.918-1.297 3.146c0 1.228 0.497 2.341 1.297 3.146s1.909 1.305 3.135 1.305c0.368 0 0.667-0.299 0.667-0.667s-0.298-0.667-0.667-0.667c-0.856 0-1.629-0.348-2.19-0.912s-0.909-1.343-0.909-2.205 0.347-1.641 0.909-2.205c0.561-0.564 1.334-0.912 2.19-0.912 0.853 0 1.626 0.348 2.188 0.912l0 0c0.562 0.564 0.908 1.342 0.908 2.205 0 0.368 0.298 0.667 0.667 0.667s0.667-0.299 0.667-0.667c0-0.936-0.287-1.805-0.779-2.522l6.617-4.274c0.309-0.2 0.398-0.612 0.198-0.922s-0.612-0.398-0.922-0.198l-6.821 4.405c-0.751-0.588-1.696-0.941-2.723-0.941zM25.107 21.128c-1.035-0.466-2.249-0.536-3.393-0.096-0.344 0.132-0.515 0.518-0.383 0.861s0.518 0.515 0.861 0.383c0.799-0.307 1.643-0.259 2.367 0.067s1.324 0.929 1.629 1.733v0c0.306 0.806 0.258 1.657-0.067 2.387s-0.925 1.333-1.723 1.639l-0.001 0c-0.798 0.307-1.643 0.259-2.369-0.067-0.723-0.327-1.323-0.929-1.628-1.734-0.13-0.344-0.515-0.518-0.86-0.387s-0.518 0.515-0.387 0.86c0.435 1.148 1.295 2.011 2.327 2.477l0.001 0.001c1.035 0.464 2.249 0.535 3.393 0.095 1.143-0.438 2-1.302 2.463-2.341l0-0c0.461-1.037 0.531-2.253 0.095-3.403-0.435-1.147-1.293-2.009-2.327-2.475zM11.77 18.789c-0.328-0.167-0.73-0.036-0.896 0.293s-0.036 0.73 0.293 0.896l8.073 4.098c0.328 0.167 0.73 0.036 0.896-0.293s0.036-0.73-0.293-0.896l-8.073-4.098z"></path>
</symbol>
<symbol id="icon-note" viewBox="0 0 32 32">
<title>note</title>
<path stroke-linejoin="round" stroke-linecap="round" stroke-miterlimit="4" stroke-width="1.3333" d="M16.656 18v-2.667h-1.333"></path>
<path stroke-linejoin="round" stroke-linecap="round" stroke-miterlimit="4" stroke-width="1.3333" d="M19.345 7.333h-10.667v18.667h14.667v-13.959l-4-4.708z"></path>
</symbol>
<symbol id="icon-paper-clip" viewBox="0 0 32 32">
<title>paper-clip</title>
<path stroke-linejoin="round" stroke-linecap="round" stroke-miterlimit="4" stroke-width="1.3333" d="M14.093 20.719l5.159-5.157c0.865-0.867 0.883-2.249 0.041-3.091-0.84-0.84-2.224-0.823-3.088 0.044l-6.713 6.712c-1.729 1.731-1.768 4.496-0.085 6.18 1.683 1.681 4.448 1.644 6.179-0.087l8.864-8.863c2.595-2.596 2.652-6.744 0.127-9.268-2.523-2.524-6.673-2.467-9.268 0.127l-7.308 7.311"></path>
</symbol>
<symbol id="icon-password-changer" viewBox="0 0 32 32">
<title>password-changer</title>
<path d="M25.085 5.962c0-0.368-0.298-0.667-0.666-0.667s-0.667 0.298-0.667 0.666l-0.002 2.71c-1.944-2.055-4.697-3.338-7.75-3.338-5.891 0-10.667 4.776-10.667 10.667 0 1.683 0.39 3.277 1.086 4.695 0.162 0.331 0.562 0.467 0.892 0.305s0.467-0.562 0.305-0.892c-0.608-1.239-0.95-2.632-0.95-4.107 0-5.155 4.179-9.333 9.333-9.333 2.652 0 5.046 1.106 6.746 2.883l-2.563-0.002c-0.368-0-0.667 0.298-0.667 0.666s0.298 0.667 0.666 0.667l3.73 0.002c0.187 0.092 0.412 0.094 0.605-0.007 0.139-0.021 0.269-0.086 0.37-0.187 0.125-0.125 0.195-0.294 0.196-0.471l0.003-4.256zM8.541 21.965c-0.177-0-0.347 0.070-0.472 0.195s-0.196 0.294-0.196 0.471l-0.003 3.891c-0 0.368 0.298 0.667 0.666 0.667s0.667-0.298 0.667-0.666l0.002-2.3c1.845 1.526 4.213 2.444 6.794 2.444 5.891 0 10.667-4.776 10.667-10.667 0-0.886-0.108-1.748-0.312-2.573-0.089-0.357-0.45-0.575-0.807-0.487s-0.575 0.45-0.487 0.807c0.178 0.721 0.273 1.475 0.273 2.252 0 5.155-4.179 9.333-9.333 9.333-2.199 0-4.22-0.76-5.816-2.033l2.522 0.002c0.368 0 0.667-0.298 0.667-0.666s-0.298-0.667-0.666-0.667l-4.167-0.004zM12.961 14.024c0-0.368-0.298-0.667-0.667-0.667s-0.667 0.298-0.667 0.667v1.346l-1.364-0.426c-0.351-0.11-0.725 0.086-0.835 0.437s0.086 0.725 0.437 0.835l1.35 0.422-0.854 1.185c-0.215 0.299-0.147 0.715 0.151 0.931s0.715 0.147 0.931-0.151l0.834-1.158 0.798 1.181c0.206 0.305 0.62 0.385 0.926 0.179s0.385-0.62 0.179-0.926l-0.835-1.236 1.348-0.429c0.351-0.112 0.545-0.487 0.433-0.837s-0.487-0.545-0.837-0.433l-1.33 0.423v-1.344zM20.492 14.024c0-0.368-0.299-0.667-0.667-0.667s-0.667 0.298-0.667 0.667v1.347l-1.365-0.427c-0.351-0.11-0.725 0.086-0.835 0.437s0.086 0.725 0.437 0.835l1.35 0.422-0.853 1.185c-0.215 0.299-0.147 0.715 0.151 0.931s0.715 0.147 0.931-0.151l0.834-1.159 0.797 1.182c0.206 0.305 0.62 0.386 0.926 0.18s0.386-0.62 0.18-0.926l-0.834-1.236 1.348-0.429c0.351-0.112 0.545-0.487 0.433-0.837s-0.487-0.545-0.837-0.433l-1.329 0.423v-1.343z"></path>
</symbol>
<symbol id="icon-password-generator" viewBox="0 0 32 32">
<title>password-generator</title>
<path d="M16 5.333c-6.995 0-10.666 4.646-10.666 9.021 0 2.187 0.911 4.157 2.672 5.594 1.77 1.444 4.441 2.381 7.994 2.381 0.142 0 0.28 0.045 0.394 0.129 0.987 0.723 2.794 1.789 4.384 2.688 0.73 0.413 1.406 0.786 1.922 1.068 0.001-0.386 0.001-0.841 0.001-1.315 0-1.289-0.004-2.699-0.018-3.233-0.006-0.235 0.111-0.455 0.309-0.581 2.415-1.532 3.675-3.903 3.675-6.732 0-4.375-3.671-9.021-10.667-9.021zM23.363 27.333l-0.314 0.588-0.061-0.033-0.173-0.093c-0.15-0.081-0.367-0.198-0.633-0.343-0.533-0.291-1.264-0.694-2.060-1.144-1.496-0.846-3.255-1.879-4.338-2.646-3.677-0.037-6.596-1.029-8.621-2.681-2.073-1.691-3.162-4.042-3.162-6.627 0-5.172 4.331-10.354 11.999-10.354 7.67 0 12.001 5.182 12.001 10.354 0 3.149-1.373 5.861-3.978 7.649 0.009 0.687 0.012 1.843 0.012 2.897 0 0.643-0.001 1.252-0.002 1.699l-0.002 0.735-0.667-0.001zM23.363 27.333l0.667 0.001c-0.001 0.234-0.124 0.451-0.325 0.571s-0.45 0.126-0.656 0.016l0.314-0.588z"></path>
<path d="M11.696 11.203c0.368 0 0.667 0.298 0.667 0.667v2.189l1.303 1.931c0.206 0.305 0.126 0.72-0.18 0.925s-0.72 0.126-0.926-0.18l-1.417-2.1c-0.074-0.11-0.114-0.24-0.114-0.373v-2.393c0-0.368 0.298-0.667 0.667-0.667z"></path>
<path d="M14.667 13.321c0.112 0.351-0.083 0.726-0.433 0.837l-2.123 0.675-1.351 1.877c-0.215 0.299-0.632 0.367-0.931 0.152s-0.367-0.632-0.152-0.931l1.48-2.056c0.084-0.116 0.203-0.203 0.339-0.246l2.333-0.741c0.351-0.111 0.726 0.083 0.837 0.434z"></path>
<path d="M8.69 13.324c0.11-0.351 0.484-0.547 0.835-0.437l2.372 0.741c0.351 0.11 0.547 0.484 0.437 0.835s-0.484 0.547-0.835 0.437l-2.372-0.741c-0.351-0.11-0.547-0.484-0.437-0.835z"></path>
<path d="M20.412 11.203c0.368 0 0.667 0.298 0.667 0.667v2.189l1.303 1.931c0.206 0.305 0.126 0.72-0.18 0.925s-0.72 0.126-0.925-0.18l-1.417-2.1c-0.074-0.11-0.114-0.24-0.114-0.373v-2.393c0-0.368 0.299-0.667 0.667-0.667z"></path>
<path d="M23.383 13.321c0.111 0.351-0.083 0.726-0.433 0.837l-2.123 0.675-1.351 1.877c-0.215 0.299-0.632 0.367-0.931 0.152s-0.367-0.632-0.152-0.931l1.48-2.056c0.084-0.116 0.203-0.203 0.339-0.246l2.333-0.741c0.351-0.111 0.726 0.083 0.837 0.434z"></path>
<path d="M17.406 13.324c0.11-0.351 0.484-0.547 0.835-0.437l2.372 0.741c0.351 0.11 0.547 0.484 0.437 0.835s-0.484 0.547-0.835 0.437l-2.372-0.741c-0.351-0.11-0.547-0.484-0.437-0.835z"></path>
</symbol>
<symbol id="icon-password" viewBox="0 0 32 32">
<title>password</title>
<path stroke-linejoin="round" stroke-linecap="round" stroke-miterlimit="4" stroke-width="1.3333" d="M7.333 27.333h17.333v-12h-17.333v12z"></path>
<path stroke-linejoin="round" stroke-linecap="round" stroke-miterlimit="4" stroke-width="1.3333" d="M21.984 12.667v-1.925c0-1.677-0.671-3.196-1.755-4.296-1.084-1.099-2.583-1.779-4.237-1.779s-3.152 0.68-4.236 1.779c-1.085 1.1-1.756 2.619-1.756 4.296v1.925"></path>
<path stroke-linejoin="round" stroke-linecap="round" stroke-miterlimit="4" stroke-width="1.3333" d="M16.667 22v-2.667h-1.333"></path>
</symbol>
<symbol id="icon-pen" viewBox="0 0 32 32">
<title>pen</title>
<path stroke-linejoin="round" stroke-linecap="round" stroke-miterlimit="4" stroke-width="1.3333" d="M8.276 20.371l-0.943 4.715 4.713-0.943 10.371-10.372-3.771-3.771-10.371 10.371z"></path>
<path stroke-linejoin="round" stroke-linecap="round" stroke-miterlimit="4" stroke-width="1.3333" d="M20.533 8.114c1.041-1.041 2.729-1.041 3.771 0s1.041 2.729 0 3.772"></path>
</symbol>
<symbol id="icon-protection" viewBox="0 0 32 32">
<title>protection</title>
<path stroke-linejoin="round" stroke-linecap="round" stroke-miterlimit="4" stroke-width="1.3333" d="M12.795 25.229h-8.128v-2.001c0-2.125 1.055-3.298 2.324-4.156s3.543-0.969 4.395-1.838c0.091-0.096 0.477-2.091 0.477-2.091l-2.399-2.016v-4.197c0-1.123 0.662-2.335 1.382-3.073 0.721-0.736 1.716-1.191 2.815-1.191s2.094 0.455 2.814 1.191c0.721 0.738 1.385 1.95 1.385 3.073v2.428"></path>
<path stroke-linejoin="round" stroke-linecap="round" stroke-miterlimit="4" stroke-width="1.3333" d="M25.973 16.445c-0.589-0.253-1.36-0.587-2.128-0.92-0.768-0.332-2.101-0.911-2.101-0.911l-0.951-0.413-0.95 0.413c0 0-1.335 0.58-2.101 0.911-0.768 0.333-1.539 0.667-2.128 0.92-0.588 0.254-0.993 0.427-1.028 0.438 0 0.73 0.018 1.383 0.054 1.98 0.037 0.597 0.094 1.136 0.173 1.635s0.181 0.956 0.308 1.392c0.127 0.435 0.279 0.847 0.461 1.255 0.407 0.913 0.934 1.713 1.498 2.402 0.565 0.689 1.165 1.263 1.714 1.726s1.048 0.81 1.411 1.043c0.362 0.232 0.588 0.35 0.589 0.351 0.002-0.001 0.228-0.119 0.59-0.351 0.362-0.234 0.861-0.581 1.411-1.043s1.149-1.037 1.713-1.726c0.565-0.69 1.093-1.49 1.498-2.402 0.181-0.408 0.335-0.82 0.462-1.255 0.127-0.436 0.229-0.893 0.308-1.392s0.135-1.038 0.173-1.635c0.036-0.597 0.053-1.25 0.053-1.98-0.034-0.011-0.439-0.184-1.027-0.438z"></path>
</symbol>
<symbol id="icon-quotes" viewBox="0 0 32 32">
<title>quotes</title>
<path stroke-linejoin="round" stroke-linecap="round" stroke-miterlimit="4" stroke-width="1.3333" d="M16.027 4.632c7.351 0 11.361 4.869 11.361 9.6 0 3.023-1.376 5.586-3.995 7.228 0.029 1.081 0.015 5.632 0.015 5.632s-5.329-2.811-7.381-4.297c-7.349 0-11.36-3.834-11.36-8.563 0-4.731 4.011-9.6 11.36-9.6z"></path>
<path stroke-linejoin="round" stroke-linecap="round" stroke-miterlimit="4" stroke-width="1.3333" d="M18.056 12.566v-2.526h2.667v3.789c0 2.526-1.333 3.789-2.667 3.789M11.356 12.566v-2.526h2.7v3.789c0 2.526-1.367 3.789-2.659 3.789"></path>
</symbol>
<symbol id="icon-receipt" viewBox="0 0 32 32">
<title>receipt</title>
<path d="M8 6v20c0 0.368 0.298 0.667 0.667 0.667h14.667c0.368 0 0.667-0.299 0.667-0.667v-20c0-0.368-0.299-0.667-0.667-0.667h-14.667c-0.368 0-0.667 0.298-0.667 0.667zM12 25.333v-2c0-0.368-0.298-0.667-0.667-0.667s-0.667 0.299-0.667 0.667v2h-1.333v-18.667h13.333v18.667h-2.667v-2c0-0.368-0.299-0.667-0.667-0.667s-0.667 0.299-0.667 0.667v2h-2.667v-2c0-0.368-0.299-0.667-0.667-0.667s-0.667 0.299-0.667 0.667v2h-2.667zM12 12.667c0-0.368 0.298-0.667 0.667-0.667h6.667c0.368 0 0.667 0.298 0.667 0.667s-0.299 0.667-0.667 0.667h-6.667c-0.368 0-0.667-0.298-0.667-0.667zM12 16.667c0-0.368 0.298-0.667 0.667-0.667h4c0.368 0 0.667 0.299 0.667 0.667s-0.299 0.667-0.667 0.667h-4c-0.368 0-0.667-0.299-0.667-0.667z"></path>
</symbol>
<symbol id="icon-resend-circle" viewBox="0 0 32 32">
<title>resend-circle</title>
<path stroke-linejoin="round" stroke-linecap="round" stroke-miterlimit="4" stroke-width="1.3333" d="M5.333 16c0-5.891 4.776-10.667 10.667-10.667s10.667 4.776 10.667 10.667c0 5.891-4.776 10.667-10.667 10.667s-10.667-4.776-10.667-10.667z"></path>
<path stroke-linejoin="round" stroke-linecap="round" stroke-miterlimit="4" stroke-width="1.3333" d="M16 9.333l2.667 2.667-2.667 2.667"></path>
<path stroke-linejoin="round" stroke-linecap="round" stroke-miterlimit="4" stroke-width="1.3333" d="M19.079 20.176c-0.367 0.393-0.795 0.719-1.259 0.967-0.633 0.339-1.336 0.535-2.060 0.571-0.723 0.035-1.465-0.092-2.173-0.4-0.615-0.268-1.147-0.648-1.58-1.105-0.435-0.456-0.773-0.991-1.001-1.569s-0.345-1.201-0.34-1.833c0.007-0.632 0.137-1.273 0.407-1.889 0.259-0.596 0.625-1.115 1.065-1.541 0.44-0.428 0.955-0.764 1.512-0.997 0.589-0.247 1.229-0.377 1.877-0.377h3.139"></path>
</symbol>
<symbol id="icon-revoke" viewBox="0 0 32 32">
<title>revoke</title>
<path stroke-linejoin="round" stroke-linecap="round" stroke-miterlimit="4" stroke-width="1.3333" d="M8.457 23.542l15.085-15.084M5.333 16c0-1.472 0.299-2.876 0.839-4.152 0.539-1.276 1.32-2.425 2.285-3.391s2.115-1.745 3.391-2.285c1.276-0.54 2.68-0.839 4.152-0.839s2.876 0.299 4.152 0.839c1.276 0.54 2.425 1.32 3.391 2.285s1.747 2.115 2.285 3.391c0.54 1.276 0.839 2.68 0.839 4.152s-0.299 2.876-0.839 4.152c-0.539 1.276-1.32 2.425-2.285 3.391s-2.115 1.745-3.391 2.285c-1.276 0.54-2.68 0.839-4.152 0.839s-2.876-0.299-4.152-0.839c-1.276-0.54-2.425-1.32-3.391-2.285s-1.747-2.115-2.285-3.391c-0.54-1.276-0.839-2.68-0.839-4.152z"></path>
</symbol>
<symbol id="icon-search" viewBox="0 0 32 32">
<title>search</title>
<path stroke-linejoin="round" stroke-linecap="round" stroke-miterlimit="4" stroke-width="1.3333" d="M12.079 20.196l-6.035 6.033M14.090 8.128c2.778-2.778 7.28-2.778 10.057 0 2.778 2.776 2.778 7.279 0 10.055-2.776 2.778-7.279 2.778-10.057 0-2.778-2.776-2.778-7.279 0-10.055z"></path>
</symbol>
<symbol id="icon-security-settings" viewBox="0 0 32 32">
<title>security-settings</title>
<path stroke-linejoin="round" stroke-linecap="round" stroke-miterlimit="4" stroke-width="1.3333" d="M17.231 25.701c-0.186 0.128-1.396 0.981-1.552 1.081-0.568 0.366-0.922 0.549-0.926 0.551-0.003-0.001-0.358-0.185-0.926-0.551-0.568-0.363-1.353-0.91-2.216-1.633-0.862-0.723-1.805-1.626-2.692-2.705-0.885-1.079-1.715-2.335-2.352-3.764-0.285-0.638-0.526-1.285-0.726-1.967-0.201-0.682-0.361-1.4-0.484-2.181-0.124-0.782-0.213-1.627-0.271-2.561s-0.086-3.103-0.086-3.103l9.753-4.202 6.979 2.926"></path>
<path stroke-linejoin="round" stroke-linecap="round" stroke-miterlimit="4" stroke-width="1.3333" d="M23.82 20.237c-0.351-0.083-0.683-0.221-0.983-0.41-0.408-0.255-0.757-0.6-1.022-1.009-0.262-0.411-0.437-0.887-0.495-1.404-0.052-0.45-0.008-0.887 0.111-1.295 0.119-0.407 0.317-0.786 0.576-1.113 0.259-0.328 0.58-0.608 0.95-0.817 0.369-0.21 0.784-0.35 1.23-0.402 0.433-0.049 0.858-0.009 1.253 0.104s0.763 0.299 1.085 0.545M27 9.338l-0.763-2.382c-0.189-0.622-0.493-1.112-1.102-1.112h-1.312c-0.612 0-0.936 0.52-1.105 1.112l-0.53 2.389c-0.562 0.176-1.094 0.418-1.595 0.706l-2.256-1.073c-0.584-0.287-1.146-0.396-1.561 0.052l-0.897 0.963c-0.416 0.447-0.263 1.039 0.050 1.572l1.374 2.031c-0.213 0.441-0.386 0.906-0.517 1.387l-2.351 0.847c-0.613 0.213-1.088 0.533-1.069 1.148l0.044 1.321c0.020 0.611 0.543 0.92 1.138 1.073l2.403 0.459c0.161 0.463 0.357 0.904 0.592 1.323l-1.073 2.269c-0.289 0.584-0.401 1.148 0.044 1.572l0.953 0.904c0.443 0.423 1.033 0.267 1.561-0.044l2.029-1.379c0.371 0.182 0.755 0.345 1.152 0.469"></path>
</symbol>
<symbol id="icon-share" viewBox="0 0 32 32">
<title>share</title>
<path d="M19.909 6.667c-1.117 0-2.152 0.331-2.899 1.152-0.737 0.811-1.1 1.997-1.1 3.515v3.179c0 0.189 0.080 0.369 0.221 0.496l1.349 1.211c-0.018 0.179-0.041 0.411-0.067 0.645-0.027 0.248-0.057 0.492-0.084 0.677-0.005 0.032-0.009 0.061-0.013 0.086-0.043 0.027-0.101 0.061-0.177 0.101-0.175 0.090-0.397 0.185-0.668 0.296-0.073 0.030-0.15 0.061-0.229 0.093-0.488 0.197-1.077 0.436-1.645 0.739-1.326 0.707-2.738 1.875-2.738 4.010v1.753c0 0.368 0.298 0.667 0.667 0.667h14.769c0.368 0 0.667-0.299 0.667-0.667v-1.753c0-2.11-1.419-3.281-2.74-3.993-0.57-0.307-1.161-0.551-1.651-0.753l-0.001-0c-0.077-0.032-0.151-0.062-0.222-0.092-0.271-0.113-0.493-0.209-0.668-0.3-0.105-0.055-0.174-0.098-0.218-0.129-0.008-0.033-0.017-0.076-0.026-0.129-0.030-0.175-0.055-0.402-0.075-0.637-0.018-0.219-0.031-0.433-0.039-0.599l1.366-1.226c0.141-0.126 0.221-0.307 0.221-0.496v-3.179c0-1.518-0.364-2.705-1.102-3.515-0.747-0.82-1.783-1.152-2.899-1.152zM18.837 16.032l0.002-0.023c0.019-0.209-0.062-0.416-0.218-0.556l-1.377-1.237v-2.881c0-1.325 0.317-2.139 0.753-2.617 0.426-0.469 1.057-0.716 1.912-0.716s1.486 0.247 1.913 0.716c0.436 0.479 0.755 1.293 0.755 2.617v2.881l-1.379 1.237c-0.146 0.131-0.227 0.32-0.221 0.517l0 0.002 0 0.005 0.001 0.017 0.002 0.061c0.002 0.052 0.005 0.127 0.009 0.216 0.009 0.179 0.023 0.422 0.044 0.674 0.021 0.249 0.049 0.521 0.089 0.752 0.020 0.115 0.045 0.235 0.077 0.343 0.024 0.079 0.082 0.263 0.219 0.412 0.183 0.199 0.428 0.347 0.647 0.461 0.23 0.119 0.498 0.234 0.77 0.347 0.077 0.032 0.156 0.065 0.235 0.097 0.492 0.203 1.013 0.418 1.518 0.69 1.17 0.631 2.039 1.452 2.039 2.819v1.087h-13.436v-1.087c0-1.397 0.87-2.214 2.032-2.833 0.501-0.267 1.018-0.476 1.509-0.675v0l0.001-0c0.081-0.033 0.162-0.066 0.242-0.098 0.272-0.111 0.541-0.225 0.773-0.344 0.221-0.114 0.469-0.262 0.653-0.464l0.003-0.003c0.074-0.081 0.111-0.163 0.123-0.19 0.017-0.039 0.029-0.073 0.036-0.097 0.015-0.048 0.027-0.097 0.035-0.138 0.017-0.083 0.034-0.183 0.049-0.286 0.031-0.209 0.062-0.472 0.090-0.725 0.023-0.207 0.044-0.412 0.061-0.581 0.004-0.038 0.007-0.075 0.011-0.11 0.009-0.093 0.017-0.171 0.022-0.225l0.006-0.063zM9.048 9.529c-0.26-0.26-0.682-0.26-0.943 0s-0.26 0.682 0 0.943l2.862 2.862h-1.057c-1.635 0-3.115 0.672-4.183 1.755s-1.728 2.579-1.728 4.227v4.019c0 0.368 0.298 0.667 0.667 0.667s0.667-0.299 0.667-0.667v-4.019c0-1.286 0.514-2.449 1.344-3.291v0c0.829-0.84 1.972-1.357 3.233-1.357h1.057l-2.862 2.862c-0.26 0.26-0.26 0.683 0 0.943s0.682 0.26 0.943 0l3.984-3.984c0.13-0.122 0.211-0.295 0.211-0.487s-0.081-0.365-0.211-0.487l-3.984-3.984z"></path>
</symbol>
<symbol id="icon-shield" viewBox="0 0 32 32">
<title>shield</title>
<path stroke-linejoin="round" stroke-linecap="round" stroke-miterlimit="4" stroke-width="1.3333" d="M23.233 9.103c-0.822-0.351-1.899-0.812-2.97-1.272-1.073-0.459-2.935-1.259-2.935-1.259l-1.328-0.572-1.327 0.572c0 0-1.863 0.8-2.935 1.259-1.071 0.46-2.148 0.921-2.97 1.272-0.821 0.351-1.386 0.59-1.434 0.605 0 1.008 0.023 1.913 0.074 2.737 0.052 0.826 0.13 1.57 0.241 2.26 0.112 0.689 0.253 1.323 0.431 1.925 0.177 0.602 0.391 1.173 0.644 1.735 0.566 1.262 1.304 2.369 2.092 3.321s1.625 1.748 2.392 2.388c0.766 0.638 1.464 1.119 1.969 1.441s0.822 0.485 0.822 0.485c0.003-0.001 0.318-0.163 0.824-0.485s1.201-0.803 1.969-1.441c0.768-0.639 1.605-1.436 2.392-2.388s1.525-2.059 2.092-3.321c0.253-0.562 0.467-1.133 0.644-1.735s0.319-1.236 0.431-1.925c0.11-0.69 0.189-1.434 0.239-2.26 0.052-0.824 0.076-1.73 0.076-2.737-0.048-0.015-0.613-0.254-1.434-0.605z"></path>
<path stroke-linejoin="round" stroke-linecap="round" stroke-miterlimit="4" stroke-width="1.3333" d="M16.684 11.434l1.241-1.24M16.684 17.066l5.112-5.108"></path>
</symbol>
<symbol id="icon-sort" viewBox="0 0 32 32">
<title>sort</title>
<path d="M9.455 6.961l-2.613 2.676c-0.119 0.131-0.181 0.305-0.175 0.483 0.008 0.179 0.085 0.347 0.213 0.467 0.255 0.255 0.661 0.255 0.916 0l1.531-1.699v17.111c0 0.369 0.307 0.668 0.667 0.668 0.361 0 0.667-0.299 0.667-0.668v-17.111l1.565 1.699c0.255 0.255 0.66 0.255 0.916 0 0.123-0.125 0.192-0.296 0.192-0.475 0-0.177-0.069-0.349-0.192-0.475l-2.615-2.676c-0.028-0.033-0.057-0.065-0.092-0.093-0.053-0.063-0.121-0.113-0.196-0.148-0.157-0.071-0.337-0.071-0.496 0-0.076 0.035-0.143 0.085-0.196 0.148-0.033 0.028-0.065 0.060-0.092 0.093zM22.539 26.373l2.613-2.676c0.119-0.131 0.181-0.305 0.173-0.483-0.007-0.179-0.084-0.347-0.212-0.467-0.255-0.255-0.661-0.255-0.916 0l-1.531 1.699v-17.111c0-0.369-0.307-0.668-0.667-0.668-0.361 0-0.667 0.299-0.667 0.668v17.111l-1.565-1.699c-0.255-0.255-0.661-0.255-0.916 0-0.123 0.125-0.192 0.296-0.192 0.475 0 0.177 0.069 0.349 0.192 0.475l2.615 2.676c0.027 0.033 0.057 0.065 0.092 0.093 0.053 0.063 0.121 0.113 0.195 0.148 0.159 0.071 0.339 0.071 0.497 0 0.076-0.035 0.143-0.085 0.196-0.148 0.033-0.028 0.065-0.060 0.092-0.093z"></path>
</symbol>
<symbol id="icon-stack-menu" viewBox="0 0 32 32">
<title>stack-menu</title>
<path d="M6.667 16.667c0-0.368 0.293-0.667 0.664-0.667h17.338c0.367 0 0.664 0.309 0.664 0.667 0 0.368-0.293 0.667-0.664 0.667h-17.338c-0.367 0-0.664-0.309-0.664-0.667zM6.667 23.333c0-0.368 0.293-0.667 0.664-0.667h17.338c0.367 0 0.664 0.309 0.664 0.667 0 0.368-0.293 0.667-0.664 0.667h-17.338c-0.367 0-0.664-0.309-0.664-0.667zM6.667 10c0-0.368 0.293-0.667 0.664-0.667h17.338c0.367 0 0.664 0.309 0.664 0.667 0 0.368-0.293 0.667-0.664 0.667h-17.338c-0.367 0-0.664-0.309-0.664-0.667z"></path>
</symbol>
<symbol id="icon-star" viewBox="0 0 32 32">
<title>star</title>
<path stroke-linejoin="round" stroke-linecap="round" stroke-miterlimit="4" stroke-width="1.3333" d="M16.004 22.164l6.595 3.468-1.259-7.345 5.335-5.2-7.373-1.072-3.297-6.681-3.297 6.681-7.373 1.072 5.335 5.2-1.26 7.345 6.596-3.468z"></path>
</symbol>
<symbol id="icon-stop-circle" viewBox="0 0 32 32">
<title>stop-circle</title>
<path stroke-linejoin="round" stroke-linecap="round" stroke-miterlimit="4" stroke-width="1.3333" d="M9.333 16h13.333M5.333 16c0-5.891 4.776-10.667 10.667-10.667s10.667 4.776 10.667 10.667c0 5.891-4.776 10.667-10.667 10.667s-10.667-4.776-10.667-10.667z"></path>
</symbol>
<symbol id="icon-sync" viewBox="0 0 32 32">
<title>sync</title>
<path stroke-linejoin="round" stroke-linecap="round" stroke-miterlimit="4" stroke-width="1.3333" d="M11.333 25.859c0.608 0.469 1.305 0.823 2.056 1.032 0.749 0.209 1.555 0.275 2.376 0.169s1.584-0.373 2.257-0.765c0.672-0.393 1.257-0.911 1.727-1.519"></path>
<path stroke-linejoin="round" stroke-linecap="round" stroke-miterlimit="4" stroke-width="1.3333" d="M20.769 27.271v-3.312h-3.355"></path>
<path stroke-linejoin="round" stroke-linecap="round" stroke-miterlimit="4" stroke-width="1.3333" d="M20.769 12.724c-0.607-0.469-1.305-0.823-2.055-1.032-0.751-0.209-1.555-0.275-2.377-0.169-0.821 0.105-1.583 0.373-2.256 0.765-0.673 0.393-1.259 0.911-1.728 1.519"></path>
<path stroke-linejoin="round" stroke-linecap="round" stroke-miterlimit="4" stroke-width="1.3333" d="M11.333 11.312v3.312h3.355"></path>
<path stroke-linejoin="round" stroke-linecap="round" stroke-miterlimit="4" stroke-width="1.3333" d="M24.1 9.199c-0.037-0.777-0.669-1.401-1.456-1.401-0.003 0-0.004 0.001-0.007 0.001-0.349-2.519-2.491-4.465-5.107-4.465-2.247 0-4.141 1.439-4.859 3.439-0.551-0.243-1.159-0.384-1.803-0.384-2.452 0-4.44 1.963-4.44 4.383 0 0.065 0.017 0.125 0.020 0.191-1.777 0.617-3.116 2.24-3.116 4.164 0 2.453 2.167 4.229 4.659 4.229h15.369c2.931 0 5.305-2.125 5.305-5.008 0-2.635-1.989-4.792-4.567-5.148z"></path>
</symbol>
<symbol id="icon-tag" viewBox="0 0 32 32">
<title>tag</title>
<path stroke-linejoin="round" stroke-linecap="round" stroke-miterlimit="4" stroke-width="1.3333" d="M16.643 6h-10.643v10.641l9.755 9.756c0.961 0.96 2.532 0.96 3.492 0l7.149-7.149c0.96-0.96 0.96-2.532 0-3.493l-9.753-9.755z"></path>
<path stroke-linejoin="round" stroke-linecap="round" stroke-miterlimit="4" stroke-width="1.3333" d="M12.157 14c-0.235 0-0.461-0.040-0.671-0.115s-0.404-0.183-0.575-0.317c-0.232-0.184-0.424-0.419-0.557-0.687-0.132-0.268-0.207-0.571-0.207-0.891 0-0.277 0.056-0.541 0.157-0.781 0.103-0.24 0.249-0.457 0.431-0.639 0.181-0.183 0.397-0.329 0.639-0.432s0.505-0.159 0.783-0.159c0.269 0 0.527 0.053 0.761 0.151 0.235 0.096 0.447 0.235 0.628 0.407 0.191 0.184 0.347 0.404 0.453 0.651"></path>
</symbol>
<symbol id="icon-tool" viewBox="0 0 32 32">
<title>tool</title>
<path stroke-linejoin="round" stroke-linecap="round" stroke-miterlimit="4" stroke-width="1.3333" d="M27.223 13.672l-0.643-1.88c-0.165-0.487-0.489-0.744-0.854-0.744-0.244 0-0.51 0.117-0.754 0.362l-2.018 2.018c-0.306 0.305-0.713 0.458-1.116 0.458-0.401 0-0.802-0.15-1.106-0.453l-2.162-2.164c-0.305-0.305-0.456-0.708-0.459-1.11 0-0.401 0.153-0.805 0.455-1.109l2.020-2.011c0.247-0.249 0.367-0.516 0.367-0.765 0-0.363-0.257-0.689-0.744-0.856l-1.88-0.64c-0.217-0.075-0.459-0.11-0.709-0.11-0.689 0-1.438 0.267-1.888 0.716l-3.131 3.133c-0.448 0.449-0.716 1.196-0.716 1.887 0 0.25 0.034 0.493 0.107 0.71l0.99 2.899-7.279 7.279c-1.381 1.381-1.381 3.623 0.001 5.005 1.381 1.383 3.623 1.383 5.005 0l7.28-7.279 2.904 0.99c0.216 0.073 0.456 0.107 0.706 0.107 0.688 0.001 1.436-0.266 1.885-0.715l3.134-3.131c0-0.001 0.001-0.003 0.003-0.003 0.449-0.449 0.712-1.196 0.712-1.885-0.001-0.249-0.037-0.491-0.11-0.709z"></path>
</symbol>
<symbol id="icon-trash" viewBox="0 0 32 32">
<title>trash</title>
<path d="M9.333 25.333v-16h13.333v16h-13.333zM13.067 8v-1.333h6v1.333h-6zM20.4 8v-2c0-0.4-0.4-0.667-0.667-0.667h-7.333c-0.4 0-0.667 0.267-0.667 0.667v2h-5.067c-0.4 0-0.667 0.267-0.667 0.667s0.267 0.667 0.667 0.667h1.333v16.667c0 0.4 0.267 0.667 0.667 0.667h14.667c0.4 0 0.667-0.267 0.667-0.667v-16.667h1.333c0.4 0 0.667-0.267 0.667-0.667s-0.267-0.667-0.667-0.667h-4.933z"></path>
<path d="M12.667 20.667c-0.4 0-0.667-0.267-0.667-0.667v-5.333c0-0.4 0.267-0.667 0.667-0.667s0.667 0.267 0.667 0.667v5.333c0 0.4-0.267 0.667-0.667 0.667zM16 20.667c-0.4 0-0.667-0.267-0.667-0.667v-5.333c0-0.4 0.267-0.667 0.667-0.667s0.667 0.267 0.667 0.667v5.333c0 0.4-0.267 0.667-0.667 0.667zM19.333 20.667c-0.4 0-0.667-0.267-0.667-0.667v-5.333c0-0.4 0.267-0.667 0.667-0.667s0.667 0.267 0.667 0.667v5.333c0 0.4-0.267 0.667-0.667 0.667z"></path>
</symbol>
<symbol id="icon-unlock-small" viewBox="0 0 33 32">
<title>unlock-small</title>
<path stroke-linejoin="round" stroke-linecap="round" stroke-miterlimit="4" stroke-width="1.3333" d="M20.667 16.667v5.333h-8v-5.333h8z"></path>
<path stroke-linejoin="round" stroke-linecap="round" stroke-miterlimit="4" stroke-width="1.3333" d="M19.333 16.667v-3.963c0-0.747-0.299-1.423-0.781-1.912-0.481-0.489-1.148-0.792-1.885-0.792s-1.404 0.303-1.885 0.792c-0.483 0.489-0.781 1.165-0.781 1.912v3.963"></path>
</symbol>
<symbol id="icon-unlock" viewBox="0 0 33 32">
<title>unlock</title>
<path d="M17.326 4c1.84 0 3.507 0.758 4.712 1.977l0.001 0.001c1.201 1.22 1.945 2.905 1.945 4.764v3.925h2.017c0.368 0 0.667 0.299 0.667 0.667v12c0 0.368-0.299 0.667-0.667 0.667h-17.333c-0.368 0-0.667-0.299-0.667-0.667v-12c0-0.368 0.298-0.667 0.667-0.667h2v-3.925c0-1.858 0.744-3.543 1.946-4.764l0.001-0.001c1.204-1.219 2.87-1.977 4.712-1.977zM22.65 14.667v-3.925c0-1.496-0.597-2.848-1.561-3.828-0.966-0.978-2.297-1.58-3.763-1.58-1.467 0-2.796 0.602-3.763 1.58-0.965 0.979-1.563 2.332-1.563 3.828v3.925h10.649zM11.334 16h-2v10.667h16v-10.667h-14zM15.805 18.862c-0.26-0.26-0.683-0.26-0.943 0s-0.26 0.683 0 0.943l1.529 1.529-1.529 1.529c-0.26 0.26-0.26 0.683 0 0.943s0.682 0.26 0.943 0l1.529-1.529 1.529 1.529c0.26 0.26 0.682 0.26 0.943 0s0.26-0.683 0-0.943l-1.529-1.529 1.529-1.529c0.26-0.26 0.26-0.683 0-0.943s-0.683-0.26-0.943 0l-1.529 1.529-1.529-1.529z"></path>
</symbol>
<symbol id="icon-upload" viewBox="0 0 32 32">
<title>upload</title>
<path d="M16.22 22.687h7.141c2.645 0 4.639-1.867 4.639-4.341 0-2.243-1.716-4.173-3.991-4.488-0.317-0.043-0.559-0.307-0.575-0.627-0.020-0.431-0.368-0.767-0.791-0.767-0.333 0-0.62-0.245-0.667-0.575-0.308-2.217-2.22-3.891-4.447-3.891-1.888 0-3.588 1.205-4.231 2.997-0.063 0.175-0.195 0.315-0.365 0.388-0.172 0.072-0.363 0.072-0.532-0.003-0.492-0.217-1.008-0.328-1.533-0.328-2.080 0-3.773 1.667-3.773 3.716 0.011 0.059 0.017 0.111 0.020 0.164 0.012 0.293-0.171 0.56-0.448 0.656-1.596 0.555-2.668 1.976-2.668 3.535 0 1.997 1.753 3.563 3.992 3.563h8.228zM23.361 24.021h-15.369c-2.985 0-5.325-2.151-5.325-4.896 0-1.969 1.228-3.767 3.103-4.611 0.136-2.665 2.371-4.793 5.1-4.793 0.489 0 0.969 0.071 1.437 0.209 0.976-1.976 2.999-3.264 5.224-3.264 2.719 0 5.076 1.92 5.676 4.541 0.695 0.192 1.247 0.727 1.464 1.417 2.689 0.595 4.663 2.976 4.663 5.721 0 3.181-2.623 5.675-5.972 5.675z"></path>
<path d="M14 16.021c-0.171 0-0.341-0.065-0.472-0.195-0.26-0.261-0.26-0.683 0-0.944l2.667-2.667c0.261-0.26 0.683-0.26 0.944 0 0.26 0.261 0.26 0.683 0 0.944l-2.667 2.667c-0.131 0.129-0.301 0.195-0.472 0.195z"></path>
<path d="M19.333 16.021c-0.171 0-0.341-0.065-0.472-0.195l-2.667-2.667c-0.26-0.261-0.26-0.683 0-0.944 0.261-0.26 0.683-0.26 0.944 0l2.667 2.667c0.26 0.261 0.26 0.683 0 0.944-0.131 0.129-0.301 0.195-0.472 0.195z"></path>
<path d="M16.667 20.021c-0.368 0-0.667-0.299-0.667-0.667v-6.667c0-0.368 0.299-0.667 0.667-0.667s0.667 0.299 0.667 0.667v6.667c0 0.368-0.299 0.667-0.667 0.667z"></path>
</symbol>
<symbol id="icon-usb-key" viewBox="0 0 32 32">
<title>usb-key</title>
<path d="M9.557 8.076c0.015-0.001 0.035-0.002 0.058-0.002 0.034 0 0.063 0.002 0.081 0.004h11.435c0.718 0 1.282 0.447 1.633 0.926 0.228 0.311 0.403 0.682 0.5 1.069h4.551c0.838 0 1.443 0.717 1.443 1.499v7.675c0 0.781-0.604 1.5-1.443 1.5h-4.551c-0.097 0.387-0.273 0.757-0.5 1.067-0.351 0.479-0.915 0.926-1.633 0.926h-11.688c-0.126 0-0.24-0.017-0.321-0.030-3.604-0.273-6.383-3.473-6.383-7.305 0-3.89 2.863-7.129 6.547-7.315l0.009-0.001c0.022-0.003 0.079-0.012 0.147-0.012h0.088l0.026-0.002zM9.606 9.409c-0.015 0.001-0.035 0.002-0.058 0.002h-0.074l-0.015 0.002c-0.016 0.002-0.040 0.005-0.069 0.007l-0.016 0.001v-0c-2.908 0.136-5.3 2.719-5.3 5.984 0 3.218 2.326 5.776 5.176 5.977 0.022 0.002 0.044 0.004 0.066 0.008 0.079 0.013 0.108 0.016 0.128 0.016h11.688c0.134 0 0.346-0.092 0.558-0.381 0.206-0.281 0.327-0.643 0.327-0.946 0-0.368 0.298-0.667 0.667-0.667h5.132c0.012 0 0.034-0.004 0.061-0.033s0.049-0.076 0.049-0.134v-7.675c0-0.058-0.022-0.104-0.049-0.133s-0.049-0.033-0.061-0.033h-5.132c-0.368 0-0.666-0.298-0.667-0.666-0-0.305-0.122-0.668-0.328-0.948-0.211-0.289-0.423-0.381-0.557-0.381h-11.458c-0.024 0-0.045-0.001-0.062-0.002l-0.006 0zM24.65 13.769c0-0.368 0.299-0.667 0.667-0.667h0.933c0.368 0 0.667 0.298 0.667 0.667s-0.299 0.667-0.667 0.667h-0.933c-0.368 0-0.667-0.298-0.667-0.667zM24.65 17.251c0-0.368 0.299-0.667 0.667-0.667h0.93c0.368 0 0.667 0.299 0.667 0.667s-0.298 0.667-0.667 0.667h-0.93c-0.368 0-0.667-0.299-0.667-0.667zM15.458 11.607c-0.258-0.262-0.68-0.266-0.943-0.007s-0.266 0.68-0.007 0.943c1.549 1.573 1.546 4.147-0.014 5.731-0.258 0.262-0.255 0.684 0.007 0.943s0.684 0.255 0.943-0.007c2.067-2.099 2.078-5.506 0.014-7.602zM13.716 12.726c-0.257-0.264-0.679-0.269-0.943-0.012s-0.269 0.679-0.012 0.943c0.938 0.962 0.938 2.543-0.009 3.513-0.257 0.264-0.252 0.686 0.012 0.943s0.686 0.252 0.943-0.012c1.449-1.485 1.455-3.892 0.009-5.375zM12.23 14.459c-0.257-0.263-0.68-0.268-0.943-0.010-0.257 0.251-0.267 0.659-0.029 0.923-0.238 0.264-0.227 0.672 0.029 0.923 0.263 0.257 0.685 0.253 0.943-0.010 0.495-0.506 0.495-1.319 0-1.825z"></path>
</symbol>
<symbol id="icon-user-circle" viewBox="0 0 32 32">
<title>user-circle</title>
<path stroke-linejoin="round" stroke-linecap="round" stroke-miterlimit="4" stroke-width="1.3333" d="M8.791 24.746c0.28 0.231 0.571 0.448 0.872 0.652s0.613 0.393 0.935 0.568c0.321 0.175 0.652 0.335 0.991 0.477 0.34 0.143 0.687 0.271 1.041 0.381s0.717 0.203 1.087 0.279c0.368 0.076 0.744 0.133 1.125 0.172 0.38 0.039 0.767 0.059 1.159 0.059 0.391 0 0.777-0.020 1.159-0.059s0.756-0.096 1.125-0.172c0.368-0.076 0.731-0.168 1.087-0.279 0.355-0.111 0.701-0.239 1.040-0.381 0.34-0.143 0.669-0.303 0.991-0.477s0.633-0.364 0.935-0.568c0.301-0.204 0.593-0.421 0.872-0.652l0.704-0.632c-0.12-0.141-0.492-0.519-0.625-0.645-0.135-0.127-0.275-0.247-0.42-0.36s-0.296-0.221-0.449-0.324c-0.153-0.103-0.321-0.195-0.5-0.279-0.179-0.083-0.368-0.157-0.563-0.228-0.196-0.069-0.397-0.133-0.599-0.193-0.203-0.061-0.407-0.12-0.607-0.177-0.201-0.059-0.399-0.117-0.588-0.177-0.189-0.061-0.371-0.125-0.54-0.195-0.169-0.068-0.325-0.144-0.465-0.227s-0.263-0.173-0.363-0.276c-0.027-0.027-0.049-0.073-0.069-0.135s-0.036-0.136-0.051-0.221c-0.013-0.084-0.025-0.179-0.033-0.276-0.009-0.097-0.017-0.199-0.023-0.297-0.005-0.1-0.009-0.197-0.012-0.288s-0.004-0.175-0.005-0.247c0-0.071-0.001-0.129 0-0.171v-0.064l0.193-0.252 0.58-0.752 0.195-0.251 0.193-0.252 0.387-0.501v-3.753c0-0.119-0.008-0.237-0.025-0.356-0.016-0.119-0.040-0.239-0.071-0.357-0.032-0.119-0.069-0.236-0.113-0.352-0.044-0.117-0.093-0.232-0.147-0.344-0.055-0.112-0.113-0.221-0.176-0.328-0.063-0.105-0.129-0.208-0.197-0.307-0.069-0.099-0.141-0.192-0.215-0.281-0.073-0.088-0.149-0.171-0.225-0.248s-0.156-0.151-0.239-0.22c-0.084-0.069-0.169-0.136-0.26-0.197-0.089-0.060-0.181-0.117-0.277-0.169-0.095-0.053-0.193-0.101-0.293-0.144-0.101-0.044-0.204-0.081-0.309-0.115s-0.212-0.061-0.321-0.084c-0.111-0.023-0.221-0.040-0.335-0.052s-0.228-0.017-0.344-0.017c-0.116 0-0.231 0.005-0.344 0.017s-0.224 0.029-0.333 0.052c-0.109 0.023-0.217 0.051-0.323 0.084s-0.208 0.071-0.309 0.115c-0.1 0.043-0.199 0.091-0.293 0.144-0.096 0.052-0.188 0.109-0.277 0.169-0.089 0.061-0.176 0.128-0.259 0.197-0.084 0.069-0.163 0.143-0.239 0.22-0.077 0.077-0.152 0.16-0.225 0.248-0.075 0.089-0.145 0.183-0.215 0.281s-0.136 0.201-0.197 0.307c-0.063 0.107-0.121 0.216-0.176 0.328-0.053 0.112-0.103 0.227-0.147 0.344-0.044 0.116-0.081 0.233-0.112 0.352-0.032 0.119-0.056 0.239-0.072 0.357-0.017 0.119-0.025 0.237-0.025 0.356v3.753l0.387 0.501 0.193 0.252 0.773 1.003 0.193 0.252c0 0-0.001 0.024-0.005 0.069-0.003 0.044-0.007 0.107-0.012 0.183s-0.013 0.165-0.020 0.261c-0.008 0.096-0.016 0.199-0.025 0.301-0.009 0.104-0.020 0.208-0.031 0.307-0.009 0.099-0.020 0.192-0.032 0.273-0.011 0.081-0.023 0.152-0.033 0.205-0.011 0.052-0.023 0.087-0.033 0.099-0.103 0.103-0.227 0.196-0.368 0.28-0.14 0.084-0.297 0.159-0.468 0.229-0.169 0.069-0.352 0.133-0.541 0.195-0.191 0.061-0.388 0.12-0.588 0.177-0.201 0.059-0.405 0.117-0.608 0.177-0.203 0.061-0.403 0.125-0.599 0.193-0.195 0.069-0.384 0.144-0.563 0.227-0.179 0.084-0.347 0.175-0.499 0.277-0.153 0.103-0.303 0.209-0.448 0.323-0.144 0.112-0.284 0.232-0.419 0.357-0.133 0.125-0.503 0.501-0.623 0.643l0.705 0.635z"></path>
<path stroke-linejoin="round" stroke-linecap="round" stroke-miterlimit="4" stroke-width="1.3333" d="M6.035 21.402c-0.175-0.321-0.333-0.652-0.477-0.991-0.143-0.34-0.271-0.687-0.381-1.041-0.111-0.356-0.203-0.717-0.279-1.087-0.076-0.368-0.133-0.744-0.172-1.125s-0.059-0.767-0.059-1.159c0-0.391 0.020-0.777 0.059-1.159s0.096-0.756 0.172-1.125c0.076-0.369 0.168-0.731 0.279-1.087 0.111-0.355 0.239-0.701 0.381-1.040 0.144-0.34 0.303-0.671 0.477-0.992 0.175-0.32 0.364-0.632 0.568-0.933s0.421-0.593 0.652-0.872c0.231-0.28 0.475-0.549 0.732-0.805 0.256-0.256 0.524-0.501 0.804-0.732s0.572-0.448 0.873-0.652c0.301-0.204 0.613-0.393 0.933-0.568 0.323-0.175 0.652-0.333 0.992-0.477 0.339-0.143 0.685-0.271 1.040-0.381 0.355-0.109 0.717-0.204 1.087-0.279 0.369-0.076 0.744-0.133 1.125-0.172s0.768-0.059 1.159-0.059c0.392 0 0.779 0.020 1.159 0.059 0.381 0.039 0.757 0.096 1.125 0.172 0.369 0.075 0.732 0.169 1.087 0.279 0.355 0.111 0.701 0.239 1.041 0.381 0.339 0.144 0.669 0.303 0.991 0.477s0.632 0.364 0.935 0.568c0.301 0.204 0.592 0.421 0.872 0.652s0.548 0.476 0.804 0.732c0.257 0.256 0.501 0.525 0.732 0.805 0.232 0.279 0.449 0.571 0.652 0.872 0.204 0.301 0.393 0.613 0.568 0.933 0.175 0.321 0.335 0.652 0.477 0.992 0.144 0.339 0.271 0.685 0.381 1.040 0.111 0.356 0.204 0.717 0.279 1.087 0.076 0.369 0.133 0.744 0.172 1.125s0.059 0.768 0.059 1.159c0 0.392-0.020 0.777-0.059 1.159s-0.096 0.757-0.172 1.125c-0.075 0.369-0.168 0.731-0.279 1.087-0.111 0.355-0.237 0.701-0.381 1.041-0.143 0.339-0.303 0.669-0.477 0.991"></path>
</symbol>
<symbol id="icon-user-group" viewBox="0 0 32 32">
<title>user-group</title>
<path stroke-linejoin="round" stroke-linecap="round" stroke-miterlimit="4" stroke-width="1.3333" d="M7.211 26.667h10.224v-1.753c0-3.477-4.576-3.984-5.384-4.867-0.209-0.229-0.267-2.051-0.267-2.051l1.6-1.436v-1.893c0-2.843-1.363-4-3.333-4-1.972 0-3.333 1.157-3.333 4v1.893l1.6 1.436c0 0-0.177 1.955-0.267 2.051-0.819 0.895-5.384 1.333-5.384 4.867v1.753h4.544z"></path>
<path stroke-linejoin="round" stroke-linecap="round" stroke-miterlimit="4" stroke-width="1.3333" d="M18.898 5.851c0.176-0.119 0.365-0.215 0.568-0.292 0.203-0.076 0.417-0.132 0.644-0.171 0.225-0.036 0.463-0.055 0.709-0.055h-0.1c0.245 0 0.483 0.019 0.708 0.055 0.227 0.039 0.441 0.095 0.644 0.171 0.203 0.077 0.392 0.173 0.568 0.292 0.176 0.117 0.339 0.256 0.485 0.417s0.277 0.344 0.392 0.552c0.115 0.207 0.212 0.436 0.292 0.689 0.079 0.255 0.14 0.533 0.18 0.836 0.041 0.305 0.063 0.633 0.063 0.988v1.893l-0.6 0.54-0.2 0.179-0.2 0.18-0.2 0.179-0.2 0.18-0.2 0.179c0 0 0.013 0.125 0.035 0.315 0.023 0.188 0.051 0.44 0.081 0.693s0.063 0.508 0.091 0.704c0.027 0.193 0.048 0.328 0.060 0.339 0.103 0.112 0.264 0.219 0.467 0.323s0.449 0.208 0.72 0.32c0.272 0.111 0.569 0.228 0.877 0.359 0.308 0.132 0.624 0.277 0.936 0.443 0.311 0.165 0.615 0.353 0.897 0.567 0.281 0.213 0.54 0.456 0.761 0.732 0.22 0.276 0.401 0.587 0.528 0.937 0.127 0.352 0.197 0.745 0.197 1.187v0.807"></path>
<path stroke-linejoin="round" stroke-linecap="round" stroke-miterlimit="4" stroke-width="1.3333" d="M12.216 11.012c0.041-0.304 0.101-0.583 0.181-0.836 0.079-0.253 0.176-0.483 0.291-0.691 0.115-0.207 0.245-0.389 0.392-0.551s0.309-0.3 0.485-0.417c0.176-0.119 0.365-0.215 0.568-0.292 0.203-0.076 0.417-0.132 0.643-0.171 0.227-0.036 0.464-0.055 0.711-0.055h-0.101c0.247 0 0.484 0.019 0.709 0.055 0.227 0.039 0.441 0.095 0.644 0.171 0.201 0.077 0.392 0.173 0.568 0.292 0.176 0.117 0.337 0.256 0.485 0.417 0.147 0.161 0.277 0.344 0.392 0.551 0.115 0.208 0.212 0.437 0.291 0.691s0.14 0.532 0.181 0.836c0.041 0.305 0.063 0.633 0.063 0.988v1.893l-0.4 0.36-0.2 0.179-0.4 0.36-0.2 0.179-0.2 0.18-0.2 0.179c0 0 0.013 0.125 0.035 0.315 0.023 0.188 0.051 0.44 0.081 0.693s0.063 0.508 0.091 0.703c0.027 0.195 0.048 0.329 0.060 0.34 0.103 0.112 0.263 0.217 0.467 0.323 0.203 0.104 0.448 0.208 0.72 0.32 0.272 0.111 0.569 0.228 0.876 0.359 0.308 0.132 0.625 0.277 0.936 0.443s0.616 0.353 0.897 0.567l0.763 0.732c0.22 0.276 0.401 0.585 0.528 0.937s0.197 0.745 0.197 1.187v1.753"></path>
</symbol>
<symbol id="icon-user-multiple" viewBox="0 0 32 32">
<title>user-multiple</title>
<path stroke-linejoin="round" stroke-linecap="round" stroke-miterlimit="4" stroke-width="1.3333" d="M27.333 22v-1.911c0-0.505-0.064-0.956-0.179-1.359-0.116-0.403-0.281-0.759-0.487-1.077-0.204-0.319-0.447-0.599-0.715-0.852s-0.563-0.477-0.869-0.684c-1.292-0.909-3.063-0.992-3.088-2.117-0.036-0.169 0.020-1.144 0-1.343-0.021-0.2 1.337-1.324 1.337-1.324v-2.667c0-0.66-0.085-1.24-0.244-1.739s-0.391-0.916-0.684-1.251c-0.293-0.336-0.648-0.588-1.053-0.757-0.405-0.168-0.86-0.253-1.352-0.253-0.493 0-0.948 0.085-1.353 0.253M11.333 26h12v-2.057c0-2.179-1.024-3.244-2.249-4.131-1.224-0.887-3.609-0.929-4.417-1.812-0.209-0.229-0.267-2.052-0.267-2.052l1.6-1.435v-3.18c0-2.841-1.363-4-3.333-4-1.972 0-3.333 1.159-3.333 4v3.18l1.6 1.435c0 0-0.179 1.955-0.267 2.052-0.82 0.895-3.204 0.935-4.427 1.816-1.223 0.883-2.24 1.94-2.24 4.127v2.057h5.333z"></path>
</symbol>
<symbol id="icon-user" viewBox="0 0 32 32">
<title>user</title>
<path stroke-linejoin="round" stroke-linecap="round" stroke-miterlimit="4" stroke-width="1.3333" d="M6 27.333v-2.206c0-2.342 1.173-3.634 2.584-4.579 1.412-0.946 3.94-1.070 4.885-2.028 0.103-0.104 0.531-2.304 0.531-2.304l-2.667-2.222v-4.628c0-1.238 0.737-2.573 1.537-3.386s1.907-1.314 3.129-1.314c1.221 0 2.327 0.502 3.128 1.314 0.8 0.812 1.539 2.148 1.539 3.386v4.628l-2.667 2.222c0 0 0.287 2.057 0.529 2.304 0.932 0.946 3.461 1.073 4.875 2.024 1.413 0.95 2.595 2.249 2.595 4.583v2.206h-19.999z"></path>
</symbol>
<symbol id="icon-view-settings" viewBox="0 0 32 32">
<title>view-settings</title>
<path stroke-linejoin="round" stroke-linecap="round" stroke-miterlimit="4" stroke-width="1.3333" d="M7.333 27.333h21.333v-1.333l-2.667-6.695h-20l-2.667 6.695v1.333"></path>
<path stroke-linejoin="round" stroke-linecap="round" stroke-miterlimit="4" stroke-width="1.3333" d="M15.97 14.927v-1.333M6 19.306v-13.276c0-0.752 0.611-1.363 1.364-1.363h17.272c0.753 0 1.364 0.611 1.364 1.364v13.275h-20z"></path>
<path stroke-linejoin="round" stroke-linecap="round" stroke-miterlimit="4" stroke-width="1.3333" d="M9.97 9.927c0 0 0.168 0.208 0.472 0.521 0.303 0.312 0.741 0.728 1.284 1.145 0.544 0.416 1.191 0.833 1.908 1.145 0.717 0.313 1.507 0.521 2.336 0.521 0.828 0 1.617-0.208 2.335-0.521 0.719-0.312 1.364-0.729 1.908-1.145 0.543-0.417 0.981-0.833 1.285-1.145 0.304-0.313 0.472-0.521 0.472-0.521M21.108 13.273l-0.943-0.943M10.832 13.273l0.943-0.943"></path>
</symbol>
<symbol id="icon-vpn" viewBox="0 0 32 32">
<title>vpn</title>
<path stroke-linejoin="round" stroke-linecap="round" stroke-miterlimit="4" stroke-width="1.3333" d="M29.411 14.258c-0.492-0.211-1.139-0.487-1.78-0.763-0.643-0.276-1.759-0.757-1.759-0.757l-0.796-0.341-0.797 0.341c0 0-1.116 0.481-1.759 0.757-0.641 0.276-1.288 0.552-1.78 0.763-0.492 0.209-0.832 0.355-0.86 0.363 0 0.605 0.013 1.148 0.045 1.643 0.029 0.495 0.077 0.941 0.144 1.356 0.067 0.413 0.151 0.793 0.259 1.155 0.107 0.361 0.233 0.704 0.385 1.041 0.339 0.756 0.781 1.421 1.253 1.992 0.472 0.572 0.975 1.049 1.435 1.432s0.877 0.672 1.181 0.865c0.301 0.193 0.491 0.292 0.493 0.292 0.001 0 0.191-0.099 0.492-0.292 0.304-0.193 0.721-0.483 1.181-0.865s0.963-0.86 1.435-1.432c0.472-0.571 0.915-1.236 1.255-1.992 0.151-0.337 0.277-0.68 0.385-1.041 0.107-0.361 0.191-0.741 0.257-1.155 0.067-0.415 0.115-0.861 0.144-1.356 0.032-0.495 0.047-1.037 0.047-1.643-0.029-0.008-0.369-0.153-0.861-0.363z"></path>
<path stroke-linejoin="round" stroke-linecap="round" stroke-miterlimit="4" stroke-width="1.3333" d="M1.999 12.56c3.040-3.213 7.348-5.227 12.121-5.227 2.865 0 5.564 0.725 7.92 2.001M5.307 15.866c2.187-2.372 5.32-3.865 8.813-3.865 1.095 0 2.155 0.145 3.159 0.42M8.613 19.173c1.333-1.533 3.307-2.507 5.508-2.507 0.541 0 1.071 0.059 1.579 0.171"></path>
<path stroke-linejoin="round" stroke-linecap="round" stroke-miterlimit="4" stroke-width="1.3333" d="M12.989 23.479c-0.089-0.136-0.152-0.281-0.189-0.431-0.037-0.151-0.049-0.304-0.035-0.453 0.017-0.204 0.080-0.405 0.185-0.584 0.104-0.179 0.249-0.337 0.435-0.459 0.16-0.105 0.335-0.173 0.512-0.207s0.359-0.031 0.533 0.005c0.175 0.036 0.343 0.104 0.492 0.205 0.151 0.1 0.285 0.231 0.391 0.393 0.103 0.155 0.169 0.324 0.204 0.496 0.033 0.172 0.033 0.348 0.001 0.517-0.032 0.181-0.101 0.355-0.201 0.511"></path>
</symbol>
<symbol id="icon-warning" viewBox="0 0 32 32">
<title>warning</title>
<path stroke-linejoin="miter" stroke-linecap="butt" stroke-miterlimit="4" stroke-width="1.3333" d="M5.783 26h21.768c0.857 0 1.393-0.935 0.967-1.684l-10.884-19.085c-0.429-0.752-1.504-0.752-1.933 0l-10.884 19.085c-0.427 0.749 0.109 1.684 0.967 1.684z"></path>
<path stroke-linejoin="round" stroke-linecap="round" stroke-miterlimit="4" stroke-width="1.3333" d="M16.667 11.333v6.667"></path>
<path d="M18 22c0-0.737-0.596-1.333-1.333-1.333s-1.333 0.596-1.333 1.333c0 0.737 0.596 1.333 1.333 1.333s1.333-0.596 1.333-1.333z"></path>
</symbol>
<symbol id="icon-web" viewBox="0 0 32 32">
<title>web</title>
<path stroke-linejoin="round" stroke-linecap="round" stroke-miterlimit="4" stroke-width="1.3333" d="M23.010 7.961c-1.875-1.637-4.327-2.628-7.011-2.628-1.291 0-2.521 0.241-3.667 0.66-1.469 0.539-2.79 1.379-3.876 2.465-0.98 0.98-1.767 2.151-2.308 3.451M12.516 26.080c1.091 0.38 2.263 0.587 3.484 0.587 0.361 0 0.72-0.017 1.072-0.055 0.353-0.035 0.701-0.088 1.043-0.156 2.096-0.423 3.971-1.458 5.427-2.913 1.772-1.772 2.911-4.167 3.088-6.824 0.016-0.239 0.036-0.476 0.036-0.719 0-1.697-0.407-3.297-1.112-4.721-0.545-0.152-1.104-0.272-1.675-0.355-0.571-0.081-1.153-0.125-1.747-0.125-0.496 0-0.984 0.031-1.464 0.089s-0.952 0.144-1.416 0.252"></path>
<path stroke-linejoin="round" stroke-linecap="round" stroke-miterlimit="4" stroke-width="1.3333" d="M6.149 11.908c-0.524 1.26-0.816 2.641-0.816 4.092 0 2.945 1.193 5.612 3.124 7.544 0.331 0.329 0.688 0.628 1.059 0.913l-0.033-0.493c-0.011-0.165-0.016-0.331-0.016-0.499 0-1.005 0.12-1.983 0.345-2.919 0.224-0.937 0.553-1.833 0.971-2.677 0.308-0.624 0.664-1.22 1.063-1.783 0.4-0.563 0.844-1.091 1.331-1.577 0.821-0.821 1.756-1.527 2.777-2.096s2.131-1 3.3-1.272M26.63 16.719c-0.753 0.703-1.593 1.315-2.501 1.819-0.909 0.503-1.885 0.897-2.915 1.167"></path>
<path stroke-linejoin="round" stroke-linecap="round" stroke-miterlimit="4" stroke-width="1.3333" d="M10.782 17.869c-0.309-0.216-0.611-0.444-0.903-0.685-0.291-0.24-0.569-0.495-0.837-0.761-0.317-0.317-0.617-0.652-0.899-1.004l2.639 2.451zM10.782 17.869c1.024 0.711 2.158 1.277 3.371 1.665 1.212 0.388 2.505 0.597 3.847 0.597 0.556 0 1.103-0.039 1.639-0.112 0.536-0.072 1.061-0.18 1.576-0.315M21.214 19.705c0.035-0.269 0.064-0.539 0.085-0.812s0.033-0.549 0.033-0.827c0-1.28-0.192-2.515-0.548-3.677s-0.876-2.255-1.532-3.248c-0.236-0.359-0.488-0.702-0.756-1.034-0.269-0.331-0.553-0.649-0.855-0.949-0.517-0.519-1.081-0.989-1.681-1.411M21.214 19.705c-0.168 1.289-0.531 2.516-1.056 3.651-0.527 1.135-1.219 2.177-2.044 3.1"></path>
</symbol>
<symbol id="icon-wifi" viewBox="0 0 32 32">
<title>wifi</title>
<path d="M5.156 14.040c2.68-2.897 6.517-4.706 10.777-4.706s8.099 1.809 10.777 4.706c0.25 0.27 0.672 0.287 0.942 0.037s0.287-0.672 0.037-0.942c-2.921-3.159-7.11-5.134-11.756-5.134s-8.833 1.975-11.756 5.134c-0.25 0.27-0.234 0.692 0.037 0.942s0.692 0.234 0.942-0.037zM15.934 13.999c-2.975 0-5.636 1.299-7.462 3.35-0.245 0.275-0.666 0.299-0.941 0.055s-0.299-0.666-0.055-0.941c2.067-2.322 5.086-3.797 8.458-3.797 3.358 0 6.376 1.462 8.455 3.782 0.246 0.274 0.223 0.696-0.051 0.941s-0.696 0.223-0.941-0.051c-1.838-2.051-4.5-3.338-7.462-3.338zM15.933 18.667c-1.675 0-3.162 0.758-4.116 1.961-0.229 0.288-0.648 0.337-0.937 0.108s-0.337-0.648-0.108-0.937c1.205-1.519 3.076-2.466 5.161-2.466 2.074 0 3.944 0.947 5.161 2.463 0.231 0.287 0.185 0.707-0.102 0.937s-0.707 0.185-0.937-0.102c-0.97-1.207-2.46-1.964-4.122-1.964zM17.26 23.995c0 0.736-0.596 1.333-1.333 1.333-0.736 0-1.333-0.597-1.333-1.333 0-0.737 0.597-1.333 1.333-1.333 0.737 0 1.333 0.596 1.333 1.333z"></path>
</symbol>
</defs>
</svg>
